<?xml version="1.0" encoding="UTF-8"?>
<!DOCTYPE svg PUBLIC "-//W3C//DTD SVG 1.1//EN" "http://www.w3.org/Graphics/SVG/1.1/DTD/svg11.dtd">
<!-- Creator: CorelDRAW X6 -->
<svg xmlns="http://www.w3.org/2000/svg" xml:space="preserve" width="2.80555in" height="1.59722in" version="1.1" style="shape-rendering:geometricPrecision; text-rendering:geometricPrecision; image-rendering:optimizeQuality; fill-rule:evenodd; clip-rule:evenodd"
viewBox="0 0 2806 1597"
 xmlns:xlink="http://www.w3.org/1999/xlink">
 <defs>
  <style type="text/css">
   <![CDATA[
    .fil0 {fill:url(#id0)}
   ]]>
  </style>
  <linearGradient id="id0" gradientUnits="userSpaceOnUse" x1="1404.16" y1="-3.9685" x2="1404.16" y2="1597.22">
   <stop offset="0" style="stop-color:#F89C32"/>
   <stop offset="1" style="stop-color:#EF4537"/>
  </linearGradient>
 </defs>
 <g id="Layer_x0020_1">
  <metadata id="CorelCorpID_0Corel-Layer"/>
  <path class="fil0" d="M2539 1543l-25 0 0 -158 27 0c54,0 77,26 77,79 0,47 -25,79 -79,79zm-2295 53l0 0 -1 0c-5,-1 -10,-2 -14,-3l0 0 0 0c-3,-1 -6,-2 -10,-3l0 0 0 0c-1,0 -3,-1 -4,-1l0 0 0 0c-2,-1 -5,-2 -7,-3l0 0 0 0c-3,-1 -6,-3 -8,-4l0 0 0 0c-1,0 -2,-1 -2,-1l0 0 0 0c-4,-2 -9,-5 -12,-8l0 0 0 0c-3,-2 -6,-4 -8,-7l0 0 0 0 -1 -1 0 0 0 0 -1 -1 0 0 0 0c-2,-3 -5,-5 -7,-8l0 0 0 0c-1,-1 -2,-2 -3,-4l37 -33c18,21 41,29 66,29 31,0 45,-8 45,-28 0,-17 -9,-24 -57,-35 -4,-1 -9,-2 -13,-3l0 0 0 0c-3,-1 -6,-2 -9,-3l0 0 0 0c-1,0 -3,-1 -4,-1l0 0 0 0c-5,-2 -9,-3 -14,-5l0 0 0 0c-1,0 -2,-1 -2,-1l0 0 0 0c-3,-2 -6,-3 -9,-5l0 0 0 0c-8,-5 -15,-12 -19,-20l0 0 0 0c-1,-2 -2,-4 -3,-5l0 0 0 0c0,-1 -1,-2 -1,-3l0 -1 0 0c0,-1 -1,-3 -1,-4l0 0 0 0c-1,-2 -1,-4 -1,-6l0 -1 0 0c-1,-5 -1,-10 -1,-15 0,-4 0,-8 1,-12l0 0 0 -2c0,-2 1,-4 1,-5l0 0 0 0c0,-1 1,-2 1,-4l0 0 0 -1c0,-1 1,-2 1,-4l0 0 0 0c1,-2 2,-4 3,-6l0 0 0 0c1,-1 2,-3 2,-4l0 0 0 -1c1,-1 2,-2 2,-3l0 0 0 0c4,-6 9,-11 15,-15l0 0 0 0c1,-1 3,-2 4,-3l0 0 0 0c5,-3 10,-6 16,-8l0 0 0 0c4,-2 8,-3 13,-4l1 0 0 0c5,-1 10,-2 16,-3l4 0 0 0c3,0 6,0 9,0 2,0 4,0 6,0l0 0 7 0c3,0 5,1 8,1l0 0 3 0c4,1 8,2 11,3l0 0 1 0c1,0 2,1 3,1l0 0 1 0c1,0 2,1 3,1l0 0 1 0c1,0 2,1 3,1l0 0 1 0c2,1 4,2 6,3 1,0 2,1 3,1l0 0 0 0c1,1 3,1 4,2l0 1 1 0 2 1 0 0 1 0c1,0 1,1 2,1l0 0 0 0 1 1 0 1 1 0 2 1 0 0 0 0c2,1 4,3 5,4l0 0 0 0 1 1 0 0 1 0c2,2 4,4 6,5l0 0 0 0 1 1 0 0 0 0 1 1 0 0 0 0 1 1 0 0 0 0c1,1 2,2 4,4l-37 36c-17,-17 -35,-27 -59,-27 -28,0 -37,12 -37,23 0,16 11,21 52,31 6,1 12,3 18,5l0 0 0 0c6,2 11,3 16,5l0 0 0 0c2,1 4,2 7,3l0 0 0 0c2,1 4,2 5,3l0 0 0 0c1,0 2,1 2,1l0 0 0 0c5,3 10,6 14,10l0 0 0 0 1 1 0 0 0 0 1 1 0 0 0 0c1,1 3,3 4,4l0 0 0 0c1,1 2,2 3,3l0 1 1 0 1 1 0 0 0 0c2,3 4,7 5,10l0 1 0 0c0,1 1,2 1,3l0 1 0 0c1,3 2,6 2,9l0 2 0 0c1,4 1,9 1,14 0,8 -1,15 -2,22l0 0 0 1c0,2 -1,3 -1,5l0 0 0 0c0,1 -1,3 -1,4l0 0 0 0c-1,3 -2,6 -4,8l0 0 0 1c0,1 -1,1 -1,2l0 0 0 1c-2,3 -4,6 -7,9l0 0 0 0 -1 1 0 0 0 0 -1 1 0 0 0 0 -1 1 0 0 0 0c-1,1 -2,2 -3,2l0 0 0 0c-2,1 -3,3 -5,4l0 0 0 0c-1,1 -3,2 -4,3l0 0 0 0c-2,1 -5,3 -8,4l-1 0 0 0c-1,0 -2,1 -2,1l0 0 0 0c-1,0 -2,1 -3,1l-1 0 0 0c-1,0 -2,1 -3,1l0 0 0 0c-3,1 -6,2 -10,3l-1 0 0 0c-2,0 -3,1 -5,1l-2 0 0 0c-9,2 -19,2 -31,2 -7,0 -13,0 -19,-1zm2564 -706c-1,9 -1,18 -3,27l0 0 0 1c0,2 -1,5 -1,7l0 0 0 2c0,2 -1,5 -1,7l0 0 0 0c-1,4 -2,8 -3,12l0 0 0 1c0,1 -1,3 -1,4l0 0 0 1 -1 4 0 0 0 1c0,1 -1,3 -1,4l0 0 0 1c-1,4 -3,9 -4,13l0 0 0 0 -1 4 0 0 0 0 -1 4 0 0 0 0c-1,2 -2,4 -2,7l0 0 0 1 -1 3 0 0 0 0c-3,7 -5,13 -8,19l0 0 0 0 -1 3 0 0 0 0 -1 3 0 0 0 0 -1 2 0 0 0 0 -1 2 0 0 0 0 -1 3 0 0 0 0 -1 3 0 0 0 0c-2,3 -4,7 -5,10l0 0 0 0c-1,2 -3,4 -4,7l0 0 0 0 -2 4 0 0 0 1 -1 2c-1,1 -2,3 -3,4l0 0 0 0c-1,1 -2,3 -3,4l0 0 0 0c-1,2 -3,4 -4,5l0 0 0 0c-1,1 -2,2 -3,4l0 0 0 0 -1 1 0 0 0 1c-1,1 -2,2 -3,4l0 0 0 0 -1 1 0 0 0 0c-1,2 -3,3 -4,5l0 0 0 0c-2,3 -5,5 -7,8l0 0 0 0 -1 1 0 0 0 0c-4,4 -7,8 -11,12l0 0 0 0 -1 1 0 0 0 0 -1 1 0 0 0 0c-1,1 -3,3 -4,4l0 0 0 0 -1 1 0 0 0 0c-4,4 -9,8 -14,12l0 0 0 0 -1 1 0 0 0 0c-5,4 -10,8 -15,12l0 0 0 0c-1,1 -2,2 -4,3l-1 0 0 0 -1 1 0 0 0 0c-1,1 -2,2 -4,3l-1 0 0 0c-2,1 -4,3 -5,4l0 0 0 0c-1,1 -3,2 -4,3l0 0 0 0c-1,1 -3,2 -4,3l0 0 0 0c-2,1 -4,3 -7,4l0 0 0 0c-2,1 -4,3 -7,4l0 0 0 0c-3,2 -6,4 -10,5l0 0 0 0 -3 1 0 0 0 0 -2 1 0 0 0 0 -2 1 0 0 0 0 -2 1 0 0 0 0 -2 1 0 0 0 0 -3 1 0 0 0 0c-6,3 -13,6 -19,8l0 0 0 0 -3 1 -1 0 0 0c-1,0 -2,1 -3,1l0 0 0 0c-1,0 -3,1 -4,1l0 0 0 0 -4 1 -1 0 0 0 -4 1 -1 0 0 0c-3,1 -5,2 -8,3l0 0 0 0c-2,0 -3,1 -5,1l-1 0 0 0 -4 1 -1 0 0 0c-1,0 -3,1 -4,1l-2 0 0 0c-6,1 -12,3 -17,4l-1 0 0 0c-2,0 -5,1 -7,1l-1 0 0 0c-3,0 -5,1 -8,1l-2 0 0 0c-3,0 -6,1 -9,1l0 0 0 0c-6,1 -11,1 -17,1l-7 0 0 0c-4,0 -9,0 -13,0 -6,0 -957,0 -958,-1l0 0 0 0 0 0c-4,0 -8,-1 -11,-3l0 0 0 0c-2,-1 -4,-2 -6,-3l0 0 0 0c-4,-3 -8,-6 -11,-10l0 0 0 0c-3,-4 -5,-8 -7,-12l0 0 0 0c-1,-4 -2,-8 -2,-13l0 -1097c0,-4 0,-7 1,-10l0 0 0 -1c0,-2 1,-3 1,-5l0 0 0 0c0,-1 1,-2 1,-2l0 0 0 -1c0,-1 1,-1 1,-2l0 0 0 -1c1,-1 2,-2 3,-4l0 0 0 0c0,0 1,-1 1,-1l0 0 0 0c0,0 1,-1 1,-1l0 0 0 0c5,-5 12,-9 23,-12 4,-1 7,-3 11,-4l0 0 0 0 4 -1 1 0 0 0 3 -1 1 0 0 0 3 -1 1 0 0 0 3 -1 1 0 0 0 3 -1 1 0 0 0 3 -1 1 0 0 0 4 -1 1 0 0 0 4 -1 0 0 0 0c3,-1 6,-2 9,-3l0 0 0 0 5 -1 1 0 0 0 4 -1 1 0 0 0 4 -1 2 0 0 0 4 -1 2 0 0 0 4 -1 3 0 0 -1 3 -1 2 0 0 -1 4 -1 1 0 0 0 5 -1 0 0 0 0c5,-1 9,-2 14,-3l1 0 0 0c2,0 5,-1 7,-1l3 0 0 0c2,0 4,-1 6,-1l4 0 0 -1c2,0 4,-1 6,-1l3 0 0 0c3,0 5,-1 8,-1l2 0 0 0c4,0 8,-1 11,-1l1 0 0 0c6,-1 11,-1 17,-1l12 0 0 -1c8,0 17,-1 25,-1 12,0 25,0 37,1l0 0 1 0c10,1 21,2 31,3l0 0 1 0c3,0 7,1 10,1l0 0 1 0c6,1 13,2 19,3l0 0 0 0c10,2 19,3 29,6l0 0 0 0c8,2 16,4 23,6l0 0 0 0c5,1 10,3 15,4l0 0 0 0c5,1 9,3 14,4l0 0 0 0c1,0 3,1 4,1l0 0 1 0c11,3 21,7 31,11l0 0 0 0c5,2 9,4 14,5l0 0 0 0c21,9 41,18 61,29l0 0 0 0c7,4 13,7 19,11l0 0 0 0c17,10 34,21 50,33l0 0 0 0c2,1 4,3 6,4l0 0 0 0c4,3 8,6 12,10l0 0 0 0c6,5 11,9 17,14l0 0 0 0c23,20 45,42 65,65l0 0 0 0c5,5 9,11 14,17l0 0 0 0c5,6 9,12 14,18l0 0 0 0c6,8 11,16 17,24l0 0 3 4 0 0 0 0c5,7 9,15 14,22l0 0 0 0c12,21 23,42 33,64l0 0 0 0c1,3 3,6 4,10l0 0 0 0c4,9 8,18 11,28l0 0 0 0 1 4 0 0 0 0c3,9 7,19 10,29l0 0 0 0c1,5 3,9 4,14l0 0 0 0c4,13 7,26 10,40l0 0 0 0c0,2 1,4 1,7l0 0 0 0c1,5 2,10 3,15l0 0 0 0c2,9 3,19 4,29l0 0 0 0c0,4 1,8 1,12l0 0 0 0c0,2 0,4 1,6 2,-1 5,-2 7,-3l0 0 0 0 3 -1 1 0 0 0c2,-1 5,-2 7,-2l0 0 0 0 4 -1 0 0 0 0 4 -1 0 0 0 0 4 -1 0 0 0 0c3,-1 6,-2 9,-3l0 0 0 0c2,0 3,-1 5,-1l1 0 0 0 5 -1 1 0 0 0c2,0 3,-1 5,-1l0 0 0 0c4,-1 9,-2 13,-3l1 0 0 0c2,0 5,-1 7,-1l2 0 0 0c2,0 5,-1 7,-1l1 0 0 0c4,0 7,-1 11,-1l1 0 0 0c7,-1 14,-1 21,-1l7 0 0 0 4 0c1,0 2,0 3,0l0 0 7 0c7,0 14,1 21,1l0 0 2 0c4,0 7,1 11,1l0 0 2 0c3,0 5,1 8,1l0 0 1 0c2,0 5,1 7,1l0 0 1 0c4,1 9,2 13,3l0 0 1 0c2,0 3,1 5,1l0 0 1 0c1,0 3,1 4,1l0 0 1 0c1,0 3,1 4,1l0 0 1 0c2,0 3,1 5,1l0 0 0 0c4,1 8,3 12,4l0 0 1 0c1,0 2,1 3,1l0 0 1 0m4 1c2,1 4,2 7,3l0 0 1 0c4,2 9,4 13,6l0 0 0 0 3 1 0 0 0 0 2 1 0 0 1 0 2 1 0 0 1 0c9,4 17,9 26,14l0 0 1 0 2 1 0 0 0 0c1,1 3,2 4,2l0 0 1 0c2,1 4,3 6,4l0 0 0 0c3,2 5,4 8,5l0 0 0 0c2,1 4,3 5,4l0 0 0 0 4 3 0 0 0 0 1 1 0 0 1 0c2,1 3,3 5,4l0 0 0 0c2,1 3,3 5,4l0 0 0 0c3,3 7,5 10,8l0 0 0 0 1 1 0 0 0 0 1 1 0 0 0 0c9,8 17,16 25,25l0 0 0 0 1 1 0 0 0 0 1 1 0 0 0 0c5,5 9,11 14,17l0 0 0 0c1,2 3,4 4,5l0 0 0 0c1,2 3,4 4,6l0 0 0 0c1,1 2,3 3,4l0 0 0 0c2,3 4,5 5,8l0 0 0 0c1,1 2,3 3,4l0 0 0 0c1,2 3,4 4,7l0 0 0 0c1,2 3,4 4,7l0 0 0 0c6,11 12,22 17,33l0 0 0 0c2,4 4,9 6,13l0 0 0 0 1 3 0 1 0 0c1,2 2,5 2,7l0 0c0,1 1,3 1,4l0 0 0 0c1,4 3,9 4,14l0 0 0 0c0,2 1,3 1,5l0 1 0 0c0,2 1,3 1,5l0 1 0 0c0,2 1,3 1,5l0 1 0 0c2,7 3,13 4,20l0 2 0 0c0,2 1,5 1,7l0 1 0 0c1,9 2,18 3,27l0 39m-265 446l-81 0 0 258 77 0 2 0 0 0 4 0c5,0 10,-1 15,-1l0 0 1 0c3,0 5,-1 8,-1l0 0 1 0c2,0 3,-1 5,-1l0 0 2 0c1,0 3,-1 4,-1l0 0 2 0c4,-1 8,-3 12,-4l0 0 0 0 2 -1 0 0 1 0c1,0 2,-1 3,-1l0 0 0 0c1,0 2,-1 3,-1l0 0 0 0c1,0 2,-1 2,-1l0 0 0 0c3,-2 6,-3 9,-5l0 0 0 0c1,-1 3,-2 4,-3l0 0 0 0 1 -1 0 -1 1 0 2 -1 0 0 0 0 1 -1 0 0 0 0c2,-2 4,-4 6,-6l0 0 0 0 1 -1 0 0 0 0 1 -1 0 0 0 0 1 -1 0 0 0 0 1 -1 0 0 0 0 1 -1 0 0 0 0c3,-4 7,-8 10,-12l0 0 0 0 1 -2 0 -1 1 0 1 -1 0 -1 1 0 1 -1 0 0 0 0 1 -2 0 -1 0 0 1 -2 0 -1 0 0c1,-3 3,-5 4,-8l0 0 0 0c0,-1 1,-2 1,-4l0 -1 0 0c0,-1 1,-2 1,-3l0 -2 1 0 1 -2 0 -2 1 0c0,-1 1,-2 1,-3l0 -1 0 0c1,-4 2,-9 3,-13l0 -6 1 0c0,-3 1,-6 1,-9l0 -5 0 0c0,-1 0,-3 0,-4l0 -3 0 0 0 -7c0,-4 0,-8 -1,-12l0 0 0 -4c0,-3 -1,-6 -1,-8l0 0 0 -1c0,-2 -1,-3 -1,-5l0 0 0 -2c0,-1 -1,-3 -1,-4l0 0 0 -2c0,-1 -1,-3 -1,-4l0 0 0 -1c0,-1 -1,-2 -1,-3l0 0 0 -1c-1,-4 -3,-7 -4,-10l0 0 0 0c0,-1 -1,-2 -1,-3l0 0 0 0c0,-1 -1,-2 -1,-2l0 0 0 0c0,-1 -1,-2 -1,-3l0 0 0 0 -1 -1 -1 0 0 -1 -1 -2 0 0 0 0c-2,-3 -4,-6 -7,-9l0 0 0 0 -1 -1 0 0 0 -1 -1 -1 -1 0 0 -1 -1 -1 -1 0 0 -1c-3,-3 -5,-5 -8,-7l0 0 0 0 -1 -1 0 0 0 0c-1,-1 -2,-2 -4,-3l-1 0 0 0 -1 -1 0 0 0 0c-1,0 -1,-1 -2,-1l-1 0 0 -1 -1 -1 -2 -1 0 0 0 0c-2,-1 -5,-3 -7,-4l-1 0 0 0 -2 -1 -1 0 0 0 -3 -1 -1 0 0 -1 -2 -1 -1 0 0 0c-3,-1 -5,-2 -8,-3l0 0 0 0c-2,0 -3,-1 -5,-1l-1 0 0 0c-2,0 -4,-1 -5,-1l-2 0 0 0c-2,0 -4,-1 -6,-1l-1 0 0 0c-4,-1 -7,-1 -11,-1l-6 0 0 0c-4,0 -8,0 -13,0zm-197 145c0,41 -20,67 -53,67 -33,0 -53,-26 -53,-67l0 -144 -52 0 0 145c0,6 0,13 1,18l0 0 0 3c1,5 1,10 3,15l0 0 0 1c0,1 1,3 1,4l0 0 0 1c0,2 1,3 1,4l0 0 0 0c0,1 1,3 1,4l0 0 0 0c1,2 2,5 3,7l0 0 0 0 1 3 0 0 0 1 1 2 0 0 0 1 1 2 0 0 0 0c1,2 2,4 4,6l0 0 0 1c1,1 2,2 3,4l0 0 0 0 1 1 1 0 0 1c1,1 2,2 3,3l0 0 0 0c2,2 4,5 6,7l1 0 0 1 1 1 0 0 0 0 1 1 0 0 0 0 1 1 0 0 0 0c2,1 4,3 5,4l0 0 0 0c1,1 3,2 4,3l0 0 0 0c1,0 1,1 2,1l1 0 0 0 2 1 1 0 0 1c4,2 7,4 11,5l0 0 0 0c1,0 3,1 4,1l0 0 0 0c1,0 3,1 4,1l1 0 0 0c4,1 8,2 12,2l2 0 0 0c5,1 11,1 17,1 6,0 11,0 16,-1l0 0 3 0c2,0 4,-1 7,-1l0 0 1 0c2,0 3,-1 5,-1l0 0 1 0c1,0 2,-1 3,-1l0 -1 2 0c1,0 3,-1 4,-1l0 0 0 0c4,-1 8,-3 11,-5l0 -1 1 0 2 -1 0 0 1 0 2 -1 0 0 0 0c3,-2 6,-4 9,-7l0 0 0 0 1 -1 0 0 0 0 1 -1 0 0 0 0 1 -1 0 0 0 0 1 -1 0 -1 1 0c3,-3 5,-6 8,-9l0 -1 0 0 1 -1 0 0 0 0 1 -2 0 -1 1 0 1 -1 0 0 0 0c3,-4 5,-8 7,-13l0 -1 0 0 1 -2 0 -1 0 0c1,-2 2,-5 3,-7l0 0 0 0c1,-3 2,-6 3,-10l0 -2 0 0c0,-1 1,-3 1,-4l0 -1 0 0c0,-2 1,-4 1,-7l0 0 0 0c1,-4 1,-8 1,-12l0 -6 0 0c0,-3 0,-6 0,-10l0 -144 -52 0 0 145zm-320 66c-42,0 -59,-36 -59,-82 0,-46 17,-82 59,-82 42,0 59,36 59,82 0,46 -17,82 -59,82zm0 -215c-2,0 -5,0 -7,0l0 0 -6 0c-3,0 -5,1 -8,1l0 0 -2 0c-4,1 -7,2 -11,3l0 0 -1 0c-1,0 -2,1 -3,1l0 0 -1 0c-1,0 -2,1 -3,1l0 0 -1 0c-2,1 -4,2 -6,3l0 0 0 0c-1,0 -2,1 -3,1l0 0 0 0c-1,1 -3,1 -4,2l0 1 -1 0 -2 1 0 0 0 0c-1,1 -3,2 -4,3l0 0 0 0c-2,1 -3,3 -5,4l0 0 0 0c-5,4 -10,10 -15,15l0 0 0 0c-1,1 -2,2 -3,4l0 1 0 0 -1 1 0 0 0 0 -1 2 0 1 -1 0 -1 1 0 0 0 0c0,1 -1,1 -1,2l0 1 0 0c-1,2 -3,5 -4,7l0 0 0 0c0,1 -1,2 -1,3l0 0 0 0c0,1 -1,2 -1,3l0 1 -1 0 -1 2 0 1 0 0 -1 3 0 0 0 0c0,1 -1,2 -1,4l0 1 0 0c-1,3 -2,5 -3,8l0 0 0 0c0,2 -1,3 -1,5l0 2 0 0c0,1 -1,3 -1,4l0 1 0 0c0,2 -1,4 -1,6l0 1 0 0c-1,3 -1,7 -1,10l0 5 0 0c0,5 -1,10 -1,16 0,6 0,11 1,16l0 0 0 5c0,4 1,7 1,11l0 0 0 0c0,2 1,4 1,5l0 0 0 2c0,2 1,3 1,5l0 0 0 1c0,1 1,3 1,4l0 0 0 1c1,4 2,8 4,12l0 0 0 1c0,1 1,2 1,3l0 0 0 0 1 3 0 0 0 1 1 2 0 0 0 1c1,3 3,5 4,7l0 0 0 0 1 2 0 0 0 0 1 1 1 0 0 1 1 2 0 0 0 0 1 1 1 0 0 1 1 2 0 0 0 0 1 1 0 0 0 1c1,2 3,3 4,5l0 0 0 0 1 1 0 0 0 0 1 1 0 0 0 0 1 1 0 0 0 0 1 1 0 0 0 0 1 1 0 0 0 0 1 1 0 0 0 0 1 1 0 0 0 0c2,2 4,4 7,5l0 0 0 0 2 1 1 0 0 1 1 1 0 0 0 0c1,0 1,1 2,1l1 0 0 0c1,1 3,2 4,2l0 0 0 0c1,0 2,1 3,1l0 0 0 0c3,1 6,3 9,4l2 0 0 1c1,0 1,1 2,1l2 0 0 1 3 1 2 0 0 0c1,0 3,1 4,1l0 0 0 0c2,1 5,1 7,1l4 0 0 1c5,1 10,1 15,1 5,0 10,0 14,-1l0 -1 5 0c4,-1 8,-1 12,-2l0 0 1 0c1,0 2,-1 3,-1l0 0 2 0c1,0 2,-1 3,-1l0 -1 1 0c1,0 2,-1 3,-1l0 0 1 0c4,-2 7,-3 10,-5l0 0 1 0 2 -1 0 0 0 0c1,-1 3,-2 4,-2l0 0 1 0c1,-1 2,-2 4,-3l0 0 0 0c3,-3 7,-5 10,-8l0 0 0 0 1 -1 0 0 0 0c4,-4 8,-9 11,-14l0 0 0 0 1 -2 0 -1 1 0 1 -1 0 0 0 0 1 -2 0 -1 0 0c1,-1 2,-3 2,-4l0 0 0 0c0,-1 1,-2 1,-3l0 0 0 0c0,-1 1,-2 1,-3l0 0 0 0c0,-1 1,-2 1,-3l0 -1 1 0 1 -2 0 -1 0 0c0,-1 1,-2 1,-3l0 -1 0 0 1 -3 0 0 0 0c1,-3 2,-6 3,-9l0 -1 0 0c0,-1 1,-3 1,-5l0 -1 0 0c0,-2 1,-4 1,-5l0 -2 0 0c1,-6 2,-12 2,-19l0 -6 0 0c0,-4 0,-7 0,-11 0,-3 0,-7 0,-10l0 0 0 -7c-1,-6 -1,-12 -2,-18l0 0 0 -2c0,-2 -1,-3 -1,-5l0 0 0 -2c0,-2 -1,-4 -1,-5l0 0 0 0c-1,-3 -2,-6 -3,-8l0 0 0 -1c0,-1 -1,-2 -1,-3l0 0 0 0 -1 -2 -1 0 0 -1c0,-1 -1,-2 -1,-3l0 0 0 0 -1 -2 0 0 0 -1c-1,-3 -3,-5 -4,-8l0 0 0 0c-1,-1 -1,-3 -2,-4l-1 0 0 -1 -1 -2 0 0 0 0 -1 -1 -1 0 0 -1c0,-1 -1,-1 -1,-2l0 0 0 0 -1 -1 0 0 0 -1c-1,-2 -3,-3 -4,-5l0 0 0 0 -1 -1 0 0 0 0 -1 -1 -1 0 0 -1 -1 -1 -1 0 0 -1 -1 -1 -1 0 0 -1 -1 -1 -1 0 0 -1 -1 -1 -1 0 0 0 -1 -1 0 0 0 0 -1 -1 0 0 0 0c-2,-2 -5,-4 -7,-5l0 0 0 0c-1,0 -1,-1 -2,-1l-1 0 0 -1 -1 -1 0 0 0 0c-1,0 -2,-1 -2,-1l-1 0 0 0 -2 -1 -1 0 0 0c-3,-2 -7,-4 -11,-5l0 0 0 0c-1,0 -2,-1 -4,-1l-2 0 0 -1 -2 -1 -2 0 0 -1c-1,0 -2,-1 -3,-1l-1 0 0 0c-2,0 -4,-1 -5,-1l-2 0 0 0c-3,0 -5,-1 -8,-1l-6 0 0 0c-2,0 -5,0 -7,0zm-239 4l-52 0 0 258 155 0 0 -51 -103 0 0 -207zm-191 47c23,0 38,10 47,28l48 -22 0 -1 0 0 0 0c-3,-6 -7,-12 -11,-18l0 0 0 0c-3,-3 -5,-7 -8,-10l0 0 0 0 -1 -1 0 0 0 0c-3,-2 -5,-5 -8,-7l0 0 0 0c-6,-5 -14,-9 -22,-12l-1 0 0 0c-6,-2 -12,-4 -19,-5l0 0 0 0c-3,-1 -6,-1 -10,-1l-3 0 0 0c-3,0 -7,0 -11,0 -2,0 -4,0 -6,0l0 0 -6 0c-3,0 -5,1 -8,1l0 0 -2 0c-4,1 -7,2 -11,3l0 0 -1 0c-1,0 -2,1 -4,1l0 0 -1 0c-1,0 -2,1 -3,1l0 0 0 0c-4,1 -7,3 -11,5l0 1 -1 0 -2 1 0 0 -1 0 -2 1 0 0 0 0c-1,1 -3,2 -4,3l0 0 0 0c-5,3 -9,7 -14,11l0 0 0 0 -1 1 0 0 0 0 -1 1 0 0 0 0c-2,3 -5,5 -7,8l0 0 0 0 -1 1 0 0 0 0c-1,1 -2,2 -3,4l0 0 0 0c-1,1 -2,2 -2,4l0 0 0 0c-1,1 -2,3 -2,4l0 0 0 0c-1,2 -2,3 -3,5l0 1 0 0 -1 2 0 1 0 0 -1 2 0 1 0 0 -1 3 0 0 0 0c0,1 -1,2 -1,3l0 1 0 0 -1 3 0 0 0 0c-1,3 -2,5 -3,8l0 0 0 0c0,1 -1,3 -1,5l0 1 0 0c0,2 -1,3 -1,5l0 1 0 0c0,2 -1,4 -1,6l0 1 0 0c0,3 -1,5 -1,8l0 3 0 0c-1,6 -1,11 -1,17l0 2 0 0 0 0 0 1 0 0 0 2c0,6 0,12 1,17l0 0 0 4c0,3 1,6 1,9l0 0 0 1c0,2 1,3 1,5l0 0 0 2c0,2 1,3 1,5l0 0 0 1c0,2 1,3 1,5l0 0 0 0c1,3 2,5 3,8l0 0 0 0c1,2 2,4 3,6l0 0 0 1 1 2 0 0 0 1c2,4 3,7 5,10l0 0 0 0 1 2 0 0 0 0 1 1 1 0 0 1 1 2 0 0 0 0 1 1 1 0 0 1c1,1 2,2 3,3l0 0 0 0c2,3 4,5 7,8l0 0 0 0 1 1 0 0 0 0 1 1 0 0 0 0 1 1 0 0 0 0c4,4 8,7 12,10l0 0 0 0c1,1 3,2 4,2l0 0 0 0 2 1 1 0 0 0 2 1 1 0 0 1c3,1 5,3 8,4l1 0 0 0c1,0 2,1 3,1l1 0 0 0c1,0 2,1 3,1l1 0 0 0c1,0 2,1 3,1l1 0 0 0c4,1 8,2 12,3l3 0 0 0c5,1 10,1 15,1 7,0 13,0 19,-1l0 0 0 0c2,0 4,-1 7,-1l0 0 1 0c3,-1 7,-2 10,-3l0 0 0 0c9,-3 17,-7 25,-12l0 0 0 0c2,-1 4,-3 5,-4l0 0 0 0c4,-4 9,-8 12,-12l0 0 0 0c1,-2 3,-3 4,-5l0 0 0 0c2,-3 4,-5 5,-8l0 0 0 0c2,-3 4,-6 5,-10l-43 -26c-14,23 -27,33 -50,33 -39,0 -61,-35 -61,-82 0,-48 22,-82 61,-82zm-291 161l-25 0 0 -158 27 0c55,0 77,26 77,79 0,47 -25,79 -79,79zm4 -208l-81 0 0 258 77 0 3 0 0 0 4 0c5,0 10,-1 15,-1l0 0 1 0c3,0 5,-1 8,-1l0 0 1 0c2,0 3,-1 5,-1l0 0 2 0c1,0 3,-1 4,-1l0 0 1 0c3,-1 6,-2 8,-3l0 0 1 0c1,0 2,-1 4,-1l0 0 0 0 3 -1 0 0 1 0 2 -1 0 -1 1 0c1,0 2,-1 3,-1l0 0 0 0 3 -1 0 0 0 0c1,0 2,-1 3,-1l0 0 0 0c1,-1 3,-2 4,-2l0 0 1 0 2 -1 0 0 0 0 1 -1 0 -1 1 0 2 -1 0 0 0 0 1 -1 0 -1 1 0c1,-1 2,-2 3,-3l0 0 0 0c3,-2 5,-4 8,-7l0 0 0 0 1 -1 0 0 0 0 1 -1 0 0 0 0 1 -1c2,-3 5,-5 7,-8l0 0 0 0c1,-1 2,-2 3,-4l0 -1 0 0c1,-1 2,-2 2,-4l0 -1 0 0 1 -2 0 -1 1 0 1 -1 0 0 0 0c0,-1 1,-2 1,-2l0 -1 0 0c0,-1 1,-1 1,-2l0 -1 0 0 1 -2 0 -1 0 0c1,-2 2,-4 3,-6l0 -1 0 0 1 -2 0 -2 1 0 1 -2 0 -2 1 0 1 -3 0 -2 0 0c0,-1 1,-2 1,-4l0 0 0 0c1,-5 2,-9 3,-14l0 -7 1 0c0,-3 1,-7 1,-10l0 -4 0 0 0 -2 0 -2 0 0 0 -6c0,-4 0,-8 -1,-12l-1 0 0 -6c-1,-5 -1,-10 -3,-15l0 0 0 -1 -1 -3 -1 0 0 -3c0,-1 -1,-2 -1,-3l-1 0 0 -2c0,-1 -1,-2 -1,-4l0 0 0 -1c-1,-4 -3,-8 -5,-12l-1 0 0 -1 -1 -1 -1 0 0 -1 -1 -1 -1 0 0 -1 -1 -2 0 0 0 -1 -1 -2 0 0 0 0c-1,-1 -2,-3 -3,-4l0 0 0 0c-1,-2 -3,-4 -4,-5l0 0 0 0 -1 -1 0 0 0 0 -1 -1 -1 0 0 -1 -1 -1 -1 0 0 -1 -1 -1 -1 0 0 -1c-2,-2 -4,-4 -7,-6l0 0 0 0c-1,-1 -2,-2 -3,-3l-1 0 0 -1 -1 -1 -1 0 0 0c-1,-1 -2,-2 -3,-2l-1 0 0 0c-1,-1 -3,-2 -4,-2l0 0 0 0c-2,-1 -5,-3 -8,-4l-1 0 0 0 -2 -1 0 0 0 0c-1,0 -2,-1 -3,-1l-1 0 0 -1 -2 -1 0 0 0 0c-3,-1 -5,-2 -8,-3l0 0 0 0c-2,0 -3,-1 -5,-1l-1 0 0 0c-2,0 -4,-1 -5,-1l-1 0 0 0c-2,0 -4,-1 -6,-1l-1 0 0 0c-4,-1 -7,-1 -11,-1l-6 0 0 0c-4,0 -8,0 -13,0zm-198 109c0,14 1,47 1,56 -3,-7 -12,-20 -18,-29l-91 -136 -49 0 0 258 51 0 0 -113c0,-14 -1,-47 -1,-56 3,7 12,19 18,29l74 110 21 31 46 0 0 -258 -51 0 0 109zm-274 36c0,41 -20,67 -53,67 -33,0 -53,-26 -53,-67l0 -144 -52 0 0 145 0 3 0 0 0 4c0,5 1,9 1,14l0 0 0 3c0,2 1,5 1,7l0 0 0 1c0,1 1,3 1,4l1 0 0 2c0,2 1,3 1,5l0 0 0 1c1,4 3,8 4,12l0 0 0 0c0,1 1,2 1,3l0 0 0 1 1 2 0 0 0 1c2,4 4,7 5,10l0 0 0 0c1,1 2,3 3,4l0 0 0 0 1 1 1 0 0 1c1,1 2,2 3,3l0 0 0 0 1 1 0 0 0 0c2,3 5,5 8,8l1 0 0 1 1 1 1 0 0 0 1 1 0 0 0 0c3,2 6,5 9,7l0 0 0 0 2 1 1 0 0 1c1,1 3,2 4,2l0 0 0 0c3,2 6,3 9,4l0 0 0 0c1,0 2,1 4,1l1 0 0 0c1,0 3,1 4,1l1 0 0 0c1,0 3,1 4,1l0 0 0 0c2,1 5,1 7,1l2 0 0 0c5,1 11,1 17,1 6,0 11,0 17,-1l0 0 3 0c2,0 5,-1 7,-1l0 0 1 0c2,0 3,-1 5,-1l0 0 1 0c1,0 2,-1 3,-1l0 0 1 0c4,-1 9,-3 13,-5l0 0 1 0 2 -1 0 0 1 0 2 -1 0 0 1 0c1,0 2,-1 2,-1l0 0 0 0c4,-2 8,-5 11,-8l0 0 0 0 1 -1 0 0 0 0 1 -1 0 0 0 0 1 -1 0 0 0 0 1 -1 0 0 0 0c2,-2 4,-4 5,-6l0 -1 1 0 1 -1 0 0 0 0c1,-1 2,-2 3,-4l0 -1 0 0c1,-1 2,-3 2,-4l0 0 0 0c1,-2 3,-5 4,-8l0 -1 0 0 1 -2 0 -1 0 0c1,-2 2,-4 3,-6l0 -1 0 0c1,-3 2,-5 3,-8l0 0 0 0c0,-2 1,-3 1,-5l0 -2 0 0c0,-1 1,-3 1,-4l0 -1 0 0c1,-7 2,-14 3,-21l0 -5 0 0c0,-2 0,-4 0,-7l0 -144 -52 0 0 145zm-320 66c-42,0 -59,-36 -59,-82 0,-46 17,-82 59,-82 42,0 59,36 59,82 0,46 -17,82 -59,82zm0 -215c-2,0 -4,0 -7,0l0 0 -6 0c-3,0 -5,1 -8,1l0 0 -2 0c-2,0 -4,1 -6,1l0 0 0 0c-1,0 -3,1 -4,1l0 0 -1 0c-1,0 -2,1 -3,1l0 0 -1 0c-1,0 -2,1 -3,1l0 0 -1 0c-2,1 -4,2 -6,3l0 0 0 0c-1,0 -2,1 -3,1l0 0 0 0c-1,0 -2,1 -3,1l0 0 0 0 -1 1 0 1 -1 0 -2 1 0 0 -1 0c-1,1 -2,2 -4,2l0 0 -1 0c-9,7 -18,15 -24,25l0 0 0 0c-1,1 -2,2 -3,4l0 0 0 0c-1,2 -3,4 -4,7l0 0 0 0c-1,2 -2,3 -3,5l0 0 0 0c0,1 -1,2 -1,3l0 0 0 0c0,1 -1,2 -1,3l0 1 -1 0 -1 2 0 1 0 0c0,1 -1,2 -1,3l0 1 0 0c-1,2 -2,5 -2,8l0 1 0 0c0,1 -1,3 -1,4l0 1 0 0c0,2 -1,3 -1,5l0 2 0 0c0,2 -1,3 -1,5l0 0 0 0c-1,3 -1,6 -1,10l0 4 0 0c-1,6 -1,12 -1,18 0,7 0,13 1,19l0 0 0 4c0,3 1,6 1,9l0 0 0 1c0,2 1,4 1,6l0 0 0 2c0,1 1,3 1,4l0 0 0 2c0,2 1,3 1,5l0 0 0 0c1,3 2,5 3,8l0 0 0 0 1 2 1 0 0 1c0,1 1,2 1,3l0 0 0 1 1 2 0 0 0 1c2,4 4,9 7,13l0 0 0 0c1,1 2,3 2,4l0 0 0 1c1,1 2,2 3,4l0 0 0 0c1,2 3,4 4,5l0 0 0 0 1 1 0 0 0 0 1 1 0 0 0 0 1 1 1 0 0 1 1 1 1 0 0 1 1 1 1 0 0 1 1 1 1 0 0 1 1 1 0 0 0 0 1 1 0 0 0 0 1 1 0 0 0 0c2,1 3,3 5,4l0 0 0 0c1,1 2,2 4,3l0 0 0 0 2 1 1 0 0 1 1 1 0 0 0 0c1,0 2,1 2,1l0 0 0 0c1,0 2,1 2,1l0 0 0 0c3,1 6,3 9,4l1 0 0 0c1,0 2,1 3,1l1 0 0 0c1,0 3,1 4,1l2 0 0 0c1,0 3,1 4,1l0 0 0 0c2,1 5,1 7,1l4 0 0 1c5,1 10,1 15,1 5,0 10,0 14,-1l0 -1 5 0c4,-1 8,-1 12,-3l0 0 1 0c1,0 2,-1 3,-1l0 0 1 0c1,0 2,-1 3,-1l0 0 1 0c1,0 2,-1 3,-1l0 0 0 0c3,-1 5,-2 8,-4l0 0 1 0c1,0 1,-1 2,-1l0 0 1 0 2 -1 0 0 0 0 1 -1 0 -1 1 0 2 -1 0 0 0 0c8,-6 16,-13 22,-21l0 0 0 0c1,-1 2,-2 3,-4l0 -1 0 0c1,-1 2,-2 2,-3l0 -1 0 0c1,-1 2,-3 2,-4l0 0 0 0c2,-3 4,-7 5,-10l0 -1 0 0 1 -2 0 -1 0 0c0,-1 1,-2 1,-3l0 0 0 0c0,-1 1,-2 1,-4l0 -1 0 0c1,-4 3,-8 4,-12l0 -1 0 0c0,-1 1,-3 1,-4l0 -1 0 0c0,-2 1,-3 1,-5l0 -2 0 0c0,-2 1,-5 1,-7l0 0 0 0c1,-4 1,-9 1,-14l0 -7 0 0c0,-2 0,-4 0,-7 0,-2 0,-5 0,-7l0 0 0 -6c0,-5 -1,-9 -1,-13l0 0 0 -1c0,-3 -1,-5 -1,-8l0 0 0 -1c0,-2 -1,-3 -1,-5l0 0 0 -2c0,-2 -1,-3 -1,-5l0 0 0 -1c-1,-3 -2,-6 -3,-9l0 0 0 0 -1 -3 0 0 0 -1c0,-1 -1,-2 -1,-3l0 0 0 -1 -1 -2 -1 0 0 -1c0,-1 -1,-2 -1,-3l0 0 0 0 -1 -3 0 0 0 0c-2,-3 -3,-6 -5,-9l0 0 0 -1c-1,-1 -2,-2 -2,-4l0 0 0 -1c-1,-1 -2,-2 -3,-4l0 0 0 0c-2,-2 -4,-5 -5,-7l0 0 0 0 -1 -1 0 0 0 0 -1 -1 0 0 0 0 -1 -1 0 0 0 0 -1 -1 0 0 0 0 -1 -1 0 0 0 0 -1 -1 0 0 0 0c-2,-2 -4,-4 -7,-5l0 0 0 0c-1,-1 -2,-2 -4,-3l-1 0 0 0 -2 -1 -1 0 0 -1 -1 -1 0 0 0 0 -2 -1 -1 0 0 0c-3,-1 -5,-3 -8,-4l-1 0 0 0c-1,0 -2,-1 -3,-1l-1 0 0 -1 -2 -1 -2 0 0 -1c-1,0 -2,-1 -3,-1l-2 0 0 0c-1,0 -2,-1 -3,-1l-1 0 0 0c-2,0 -4,-1 -6,-1l-1 0 0 0c-3,0 -6,-1 -9,-1l-5 0 0 0c-2,0 -5,0 -7,0zm882 -1254c-6,0 -11,1 -16,4l0 0 0 0c-1,0 -2,1 -3,1l0 0 0 0c-1,1 -3,2 -4,3l0 0 0 0c-3,2 -5,4 -7,7l0 0 0 0c-3,4 -5,8 -7,13l0 0 0 0c-1,3 -1,5 -1,8l0 0 0 0 0 1 -16 778 9 157 0 0 0 0 7 126c0,12 6,23 15,30l0 0 0 0c1,1 3,2 4,3l0 0 0 0c1,0 2,1 3,1l0 0 0 0c5,2 10,4 16,4 9,0 18,-3 24,-9l0 0 0 0c1,-1 3,-3 4,-4l0 0 0 0c6,-7 9,-15 9,-25l0 0 17 -283 -17 -778c0,-9 -4,-18 -9,-25l0 0 0 0c-1,-1 -3,-3 -4,-4l0 0 0 0c-7,-6 -15,-9 -24,-9zm-442 1109l0 0 20 -293 -5 -147 -15 -492c0,-2 0,-5 -1,-7l0 0 0 -1c-1,-2 -2,-4 -3,-6l0 0 0 0c-1,-1 -2,-3 -3,-4l0 0 0 0c-1,-1 -2,-2 -3,-3l0 0 0 0c-1,-1 -2,-2 -3,-3l-1 0 0 0c-2,-1 -3,-2 -5,-2l-1 0 0 0c-1,-1 -3,-1 -5,-1l-2 0 0 0c-1,0 -1,0 -2,0 -1,0 -1,0 -2,0l0 0 -2 0c-2,0 -3,1 -5,1l0 0 -1 0c-2,1 -3,1 -5,2l0 0 -1 0c-1,1 -2,2 -3,3l0 0 0 0c-1,1 -2,2 -3,3l0 0 0 0c-1,1 -2,2 -3,4l0 0 0 0c-1,2 -2,4 -3,6l0 1 0 0c-1,2 -1,4 -1,6l0 0 0 0 0 0 -8 300 0 0 -9 339 18 293c0,2 0,5 1,7l0 0 0 1c1,2 1,4 2,6l0 0 0 1c1,1 2,3 3,4l0 0 0 0c1,1 2,2 3,3l0 0 0 0c0,0 1,1 1,1l0 0 0 0c1,0 1,1 2,1l1 0 0 1c1,1 3,2 5,2l1 0 0 0c1,0 3,1 4,1l3 0 0 0c1,0 1,0 2,0 1,0 1,0 2,0l0 0 3 0c2,0 3,-1 4,-1l0 0 1 0c2,-1 3,-1 5,-2l0 0 1 0c1,-1 2,-2 3,-3l0 0 0 0c1,-1 2,-2 3,-3l0 0 0 0c1,-1 2,-3 3,-4l0 0 0 0c1,-2 2,-4 3,-6l0 -1 0 0c1,-2 1,-5 1,-7l0 0zm-259 28c1,0 1,0 2,0l0 0 2 0c3,-1 6,-2 9,-4l0 0 0 0c2,-1 4,-3 5,-5l0 0 0 0c2,-3 3,-5 4,-9l0 -1 0 0c0,-1 0,-2 0,-4l23 -298 -17 -415 0 0 0 0 -6 -155c0,-1 0,-2 0,-3l0 0 0 -1c0,-1 -1,-3 -1,-4l0 0 0 0c0,-1 -1,-2 -1,-3l0 0 0 0c-2,-3 -5,-6 -8,-8l0 0 0 0c-2,-1 -4,-2 -6,-3l-1 0 0 0c-2,0 -3,-1 -5,-1 -2,0 -3,0 -5,0l0 0 -1 0c-2,1 -4,1 -6,2l0 0 -1 0c-1,1 -2,2 -3,3l0 0 0 0c0,0 -1,1 -1,1l0 0 0 0c-1,1 -2,2 -3,4l0 1 0 0c-1,2 -2,4 -2,6l0 1 0 0c0,1 -1,3 -1,5 0,0 -21,570 -21,570l1 8 0 0 20 290c0,2 0,3 1,5l0 0 0 1c1,2 2,4 3,6l0 0 0 0c2,3 5,6 8,8l0 0 0 0c1,1 2,1 3,1l0 0 0 0c1,1 3,1 5,1l1 0 0 0c1,0 2,0 3,0zm465 -954c-1,0 -3,0 -4,0l0 1 -3 0c-1,0 -3,1 -4,1l0 0 -1 0c-2,1 -3,1 -5,2l0 0 -1 0c-1,1 -2,2 -4,3l0 0 0 0c-1,1 -3,2 -4,4l0 0 0 0c-1,1 -2,2 -3,3l0 1 0 0c-2,3 -3,6 -4,9l0 2 -1 0c0,2 -1,4 -1,6l-3 123 0 0 0 0 -11 449 0 0 -1 28 15 289c0,2 0,4 1,6l0 0 0 2c1,3 2,6 4,9l0 0 0 1c1,1 2,2 3,4l0 0 0 0c1,1 3,3 4,4l0 0 0 0c1,1 2,2 4,3l0 0 0 0c2,1 4,2 5,3l0 0 0 0c2,1 3,1 5,1l2 0 0 0c1,0 3,0 4,0 1,0 3,0 4,0l0 0 3 0c2,0 3,-1 4,-1l0 0 1 0c2,-1 3,-1 5,-2l0 0 1 0c1,0 1,-1 2,-1l0 0 0 0c0,0 1,-1 1,-1l0 0 0 0c1,-1 3,-2 4,-4l0 -1 1 0c0,0 1,-1 1,-1l0 0 0 0c1,-1 2,-3 3,-4l0 0 0 0c1,-2 2,-4 3,-6l0 -2 1 0c0,-2 1,-4 1,-5l0 -2 0 0 0 -1 0 0 17 -289 -17 -600c0,-1 0,-1 0,-2l0 0 0 0c0,-2 0,-3 -1,-5l-1 0 0 -2c-1,-2 -2,-4 -3,-6l0 0 0 0c-1,-1 -2,-3 -2,-4l0 0 0 0c-1,-2 -3,-4 -5,-5l-1 0 0 -1 -1 -1 0 0 0 0c-1,0 -1,-1 -2,-1l-1 0 0 -1c-3,-2 -6,-3 -9,-4l-2 0 0 0c-2,0 -4,0 -5,0zm-915 935c1,0 2,0 3,0l0 0 1 0c3,-1 6,-3 8,-5l0 0 0 0c2,-2 3,-5 3,-8l30 -288 -30 -299c0,-1 0,-1 0,-2l0 0 0 0c0,-1 -1,-3 -1,-4l0 0 0 0c-2,-5 -7,-8 -12,-8 -7,0 -13,6 -14,13l0 0 0 0 0 0c0,0 -26,299 -26,299l26 288c0,3 1,6 3,8l0 0 0 0c1,1 2,2 3,3l0 0 0 0c2,1 3,2 5,3l0 0 0 0c1,0 2,0 3,0zm223 16c0,0 1,0 1,0l0 0 1 0c9,-1 16,-9 17,-18l27 -300 -27 -285c-1,-11 -9,-18 -19,-18 -9,0 -16,6 -18,14l0 0 0 0c0,1 -1,3 -1,5l-1 6 0 0 0 0 -7 85 0 0 -16 194 13 168 0 0 0 0 10 132c1,11 9,19 19,19zm574 3l1 0 0 0 2 0c2,0 4,0 5,-1l0 -1 2 0c3,-1 6,-2 8,-4l0 0 0 0 1 -1 0 -1 1 0c2,-1 3,-3 5,-5l0 -1 0 0c1,-1 2,-2 2,-4l0 0 0 0c0,-1 1,-2 1,-3l0 0 0 0c1,-1 1,-3 1,-4l0 -1 0 0c0,-2 1,-4 1,-6l0 0 18 -290 -18 -622c0,-2 0,-4 -1,-5l0 0 0 -2c0,-1 -1,-3 -1,-4l0 0 0 0c0,-1 -1,-2 -1,-2l0 0 0 -1c0,-1 -1,-1 -1,-2l0 0 0 0c0,0 -1,-1 -1,-1l-1 0 0 -1c-2,-2 -4,-4 -6,-6l-1 0 0 0c-1,-1 -3,-2 -4,-2l0 0 0 0c-1,0 -2,-1 -3,-1l-1 0 0 0c-2,0 -3,-1 -5,-1l-2 0 0 0c-1,0 -1,0 -2,0 -1,0 -1,0 -2,0l0 0 -2 0c-2,0 -3,1 -5,1l0 0 -1 0c-1,0 -2,1 -3,1l0 0 0 0c-1,0 -2,1 -3,1l0 0 0 0c0,0 -1,1 -1,1l0 1 -1 0c-2,2 -4,4 -6,6l0 1 -1 0 -1 1 0 0 0 0c-2,3 -3,6 -4,9l0 2 0 0c0,2 -1,4 -1,5l0 14 0 0 -6 212 0 0 0 0 -7 265 0 0 0 0 -3 131 2 36 0 0 0 0 7 124 0 0 7 124 0 0 0 7c0,2 0,4 1,5l0 0 0 2c0,1 1,3 1,4l0 0 0 0c0,1 1,2 1,2l0 0 0 1c0,1 1,1 1,2l0 0 0 0c0,0 1,1 1,1l1 0 0 1c2,2 4,5 7,6l0 0 0 0c2,2 5,3 8,4l2 0 0 1c2,0 4,1 5,1l2 0 0 0 1 0zm236 1c3,0 6,0 9,-1l0 0 0 0c2,-1 5,-2 7,-3l0 0 0 0c6,-3 12,-9 15,-15l0 0 0 0c2,-4 4,-9 4,-13l0 0 0 0c0,-1 0,-2 0,-2l0 0 0 0 15 -286 -11 -524 0 0 -4 -190c0,-1 0,-1 0,-2l0 0 0 -1c-1,-7 -4,-14 -8,-20l0 0 0 0c-1,-1 -3,-3 -4,-4l0 0 0 0c-3,-3 -8,-5 -12,-7l-1 0 0 0c-2,-1 -3,-1 -5,-1l0 0 0 0c-2,0 -3,0 -5,0 -2,0 -3,0 -5,0l0 0 0 0c-3,0 -6,1 -9,3l0 0c-5,2 -9,5 -12,9l0 0 0 0c-3,4 -5,8 -7,12l0 0 0 0c-1,2 -1,4 -1,6l0 1 0 0c0,1 0,2 0,3l-13 713 7 145 0 0 0 0 7 142c0,1 0,2 0,4l0 0 0 0c1,12 9,22 19,27l0 0 0 0c1,0 2,1 3,1l0 0 0 0c1,1 3,1 4,1l0 0 0 0c3,1 6,1 9,1zm-469 -1c2,0 5,0 7,-1l0 0 1 0c1,0 2,-1 3,-1l0 0 0 0c1,-1 3,-1 4,-2l0 0 1 0c2,-1 4,-3 5,-5l0 0 0 0c1,-1 2,-3 2,-4 1,-1 1,-2 1,-4l0 -1 0 0c1,-2 1,-4 1,-7l22 -295 -5 -136 0 0 -17 -482c0,-2 0,-4 -1,-6l0 0 0 -2c-1,-3 -2,-6 -4,-8l0 0 0 0c0,0 -1,-1 -1,-1l0 0 0 0c-1,-1 -2,-2 -2,-2l0 0 0 0c-1,-1 -2,-2 -4,-2l-1 0 0 0c-2,-1 -4,-2 -6,-2l-2 0 0 0c-1,0 -3,0 -4,0 -1,0 -3,0 -4,0l0 0 -2 0c-2,1 -4,1 -6,3l0 0 0 0c-1,1 -3,2 -4,3l0 0 0 0c-1,1 -2,2 -3,3l0 0 0 0c-1,1 -2,3 -3,4l0 0 0 0c-1,2 -2,4 -3,6l0 2 0 0c0,1 0,3 0,4l-10 330 0 0 0 0 -9 287 3 51 0 0 10 150 0 0 0 0 6 93c0,2 0,3 1,5l0 0 0 1c1,3 2,6 4,9l0 0 0 0c0,0 1,1 1,1l0 0 0 0c1,1 2,3 4,4l0 0 0 0c2,2 5,3 8,4l1 0 0 0c2,1 5,1 7,1zm-454 -645c-1,0 -2,0 -3,0l0 0 -1 0c-1,0 -2,1 -3,1l0 0 0 0c-3,1 -5,4 -7,7l0 0 0 0c-1,2 -2,5 -2,7l-25 308 25 298c0,1 0,3 1,4l0 0 0 0c1,2 2,4 3,5l0 0c1,1 2,2 3,3l0 0 0 0c1,1 3,2 5,3l1 0 0 0c1,0 3,1 4,1 6,0 11,-3 14,-8l0 0 0 0c0,-1 1,-2 1,-2l0 0 0 0c1,-2 1,-4 1,-6l28 -298 -28 -308 0 0 0 0 0 0c0,-4 -2,-7 -4,-9l0 0 0 0c-1,-1 -2,-2 -3,-2l0 0 0 0c-2,-1 -4,-2 -6,-3l-1 0 0 0c-1,0 -2,0 -2,0zm225 -161c-3,0 -6,1 -9,2l0 0 0 0c-5,2 -9,7 -11,12l0 0 0 0c-1,2 -1,4 -1,7l0 2 -11 235 0 0 0 0 -11 228 14 185 0 0 0 0 8 115c1,12 10,21 21,21 11,0 21,-9 21,-21l0 0 25 -300 -25 -464c0,-2 0,-3 -1,-5l0 0 0 0c-2,-7 -8,-13 -15,-15l0 0 0 0c-2,0 -3,-1 -5,-1zm-435 233c-1,-3 -2,-6 -4,-8l0 0 0 0c-2,-2 -5,-3 -7,-3 0,0 -1,0 -1,0l0 0 -1 0c-5,1 -9,5 -10,11 0,0 -28,252 -28,252l8 70 0 0 0 0 20 177c0,1 0,3 1,4l0 0 0 0c1,3 4,6 7,7l0 0 0 0c1,0 2,1 4,1 6,0 11,-5 12,-11l3 -21 0 0 0 0 29 -225 -31 -252zm-116 85c-1,0 -3,0 -4,1l0 0 0 0c-4,2 -7,5 -7,10l-21 156 7 52 0 0 0 0 14 101c0,0 0,1 0,1l0 0 0 0c1,6 6,9 11,9 6,0 10,-4 11,-11l0 0 0 0c0,0 0,0 0,0l24 -153 -24 -156c-1,-6 -6,-11 -11,-11zm2550 -180l0 0 0 0"/>
 </g>
</svg>
