<svg id="svg" version="1.1" xmlns="http://www.w3.org/2000/svg" xmlns:xlink="http://www.w3.org/1999/xlink" width="400" height="226.4" viewBox="0, 0, 400,226.4"><g id="svgg"><path id="path0" d="M181.653 68.062 L 181.653 75.651 189.422 75.651 C 195.163 75.651,197.262 75.722,197.463 75.923 C 197.673 76.132,197.735 85.925,197.735 118.621 L 197.735 161.048 205.153 160.988 L 212.571 160.929 212.684 118.347 L 212.797 75.764 220.612 75.651 L 228.426 75.538 228.426 68.063 L 228.426 60.589 205.040 60.531 L 181.653 60.474 181.653 68.062 M280.917 110.699 L 280.974 160.929 287.656 160.929 L 294.337 160.929 294.401 158.267 C 294.476 155.163,294.414 155.208,296.157 156.984 C 299.506 160.399,302.712 161.754,307.460 161.762 C 313.803 161.772,317.368 158.902,319.185 152.322 C 319.767 150.213,320.125 105.078,319.591 101.133 C 319.456 100.136,319.259 98.505,319.154 97.508 C 317.881 85.492,305.069 81.802,296.269 90.916 C 295.474 91.739,294.741 92.412,294.639 92.412 C 294.537 92.412,294.428 85.252,294.396 76.501 L 294.337 60.589 287.599 60.529 L 280.860 60.469 280.917 110.699 M10.646 62.401 C 10.646 63.211,10.730 63.873,10.834 63.873 C 11.000 63.873,11.137 64.384,11.700 67.101 C 11.771 67.443,11.920 67.724,12.030 67.724 C 12.141 67.724,12.231 67.972,12.231 68.277 C 12.231 68.581,12.320 68.884,12.428 68.951 C 12.536 69.018,12.692 69.580,12.774 70.201 C 12.856 70.821,13.023 71.390,13.144 71.465 C 13.265 71.540,13.364 71.850,13.364 72.154 C 13.364 72.458,13.465 72.707,13.590 72.707 C 13.715 72.707,13.817 72.961,13.817 73.273 C 13.817 73.584,13.904 73.839,14.011 73.839 C 14.119 73.839,14.269 74.366,14.345 75.011 C 14.422 75.655,14.589 76.287,14.717 76.415 C 14.844 76.543,14.949 76.876,14.949 77.155 C 14.949 77.435,15.051 77.726,15.176 77.803 C 15.300 77.880,15.402 78.186,15.402 78.482 C 15.402 78.779,15.504 79.085,15.629 79.162 C 15.753 79.239,15.855 79.500,15.855 79.742 C 15.855 79.983,15.947 80.181,16.059 80.181 C 16.172 80.181,16.335 80.793,16.421 81.541 C 16.508 82.288,16.671 82.957,16.783 83.026 C 16.896 83.096,16.988 83.401,16.988 83.705 C 16.988 84.009,17.089 84.258,17.214 84.258 C 17.339 84.258,17.441 84.649,17.441 85.126 C 17.441 85.604,17.515 86.070,17.607 86.161 C 17.753 86.308,18.092 87.591,18.495 89.524 C 18.566 89.867,18.715 90.147,18.825 90.147 C 18.936 90.147,19.026 90.504,19.026 90.940 C 19.026 91.376,19.122 91.733,19.239 91.733 C 19.356 91.733,19.520 92.191,19.604 92.752 C 19.688 93.313,19.847 93.771,19.958 93.771 C 20.068 93.771,20.159 94.020,20.159 94.324 C 20.159 94.628,20.260 94.940,20.385 95.017 C 20.510 95.094,20.612 95.407,20.612 95.713 C 20.612 96.019,20.699 96.446,20.806 96.662 C 21.154 97.365,21.744 99.369,21.744 99.847 C 21.744 100.103,21.846 100.376,21.971 100.453 C 22.095 100.530,22.197 100.791,22.197 101.033 C 22.197 101.274,22.299 101.472,22.424 101.472 C 22.548 101.472,22.650 101.727,22.650 102.039 C 22.650 102.350,22.742 102.605,22.854 102.605 C 22.967 102.605,23.130 103.216,23.216 103.964 C 23.303 104.711,23.466 105.323,23.578 105.323 C 23.691 105.323,23.783 105.623,23.783 105.989 C 23.783 106.355,23.884 106.718,24.009 106.795 C 24.134 106.872,24.236 107.235,24.236 107.601 C 24.236 107.968,24.323 108.267,24.431 108.267 C 24.538 108.267,24.692 108.802,24.772 109.456 C 24.917 110.648,25.375 112.200,25.666 112.491 C 25.751 112.576,25.821 112.935,25.821 113.288 C 25.821 113.641,25.911 113.930,26.022 113.930 C 26.132 113.930,26.291 114.386,26.375 114.944 C 26.458 115.501,26.623 116.017,26.740 116.090 C 26.858 116.162,26.954 116.572,26.954 117.001 C 26.954 117.430,27.055 117.780,27.180 117.780 C 27.305 117.780,27.407 118.035,27.407 118.347 C 27.407 118.658,27.508 118.913,27.633 118.913 C 27.758 118.913,27.860 119.210,27.860 119.573 C 27.860 119.937,27.987 120.277,28.143 120.328 C 28.366 120.403,28.439 124.785,28.488 141.006 C 28.537 156.938,28.613 161.628,28.828 161.765 C 29.349 162.096,44.534 161.985,44.814 161.648 C 44.989 161.437,45.081 155.118,45.125 140.142 C 45.173 123.546,45.248 118.874,45.470 118.652 C 45.626 118.497,45.753 118.084,45.753 117.735 C 45.753 117.386,45.843 117.101,45.954 117.101 C 46.064 117.101,46.211 116.820,46.280 116.478 C 46.348 116.135,46.507 115.447,46.632 114.949 C 46.757 114.451,46.972 113.533,47.108 112.911 C 47.245 112.288,47.455 111.601,47.574 111.385 C 47.694 111.168,47.792 110.792,47.792 110.549 C 47.792 110.305,47.894 110.043,48.018 109.966 C 48.143 109.889,48.245 109.583,48.245 109.287 C 48.245 108.990,48.337 108.690,48.450 108.620 C 48.563 108.550,48.725 107.984,48.811 107.361 C 48.897 106.738,49.059 106.229,49.172 106.229 C 49.285 106.229,49.377 105.974,49.377 105.663 C 49.377 105.351,49.479 105.096,49.604 105.096 C 49.728 105.096,49.830 104.811,49.830 104.462 C 49.830 104.113,49.935 103.723,50.063 103.595 C 50.191 103.467,50.358 102.836,50.434 102.191 C 50.510 101.547,50.660 101.019,50.768 101.019 C 50.875 101.019,50.963 100.764,50.963 100.453 C 50.963 100.142,51.065 99.887,51.189 99.887 C 51.314 99.887,51.416 99.695,51.416 99.460 C 51.416 99.225,51.568 98.741,51.754 98.384 C 51.940 98.027,52.093 97.404,52.094 96.999 C 52.095 96.594,52.197 96.263,52.322 96.263 C 52.446 96.263,52.548 95.957,52.548 95.583 C 52.548 95.210,52.650 94.904,52.775 94.904 C 52.899 94.904,53.001 94.699,53.001 94.448 C 53.001 94.197,53.091 93.815,53.201 93.598 C 53.494 93.020,54.134 90.279,54.134 89.600 C 54.134 89.278,54.236 89.015,54.360 89.015 C 54.485 89.015,54.587 88.760,54.587 88.448 C 54.587 88.137,54.689 87.882,54.813 87.882 C 54.938 87.882,55.040 87.582,55.040 87.216 C 55.040 86.850,55.136 86.491,55.253 86.418 C 55.370 86.346,55.535 85.830,55.619 85.272 C 55.702 84.714,55.861 84.258,55.971 84.258 C 56.082 84.258,56.172 84.009,56.172 83.705 C 56.172 83.401,56.274 83.089,56.399 83.012 C 56.523 82.935,56.625 82.579,56.625 82.220 C 56.625 81.861,56.715 81.511,56.826 81.443 C 56.936 81.375,57.094 80.862,57.178 80.303 C 57.262 79.743,57.427 79.226,57.544 79.154 C 57.662 79.081,57.758 78.824,57.758 78.582 C 57.758 78.341,57.860 78.143,57.984 78.143 C 58.109 78.143,58.211 77.786,58.211 77.350 C 58.211 76.914,58.303 76.557,58.416 76.557 C 58.529 76.557,58.691 76.048,58.777 75.425 C 58.863 74.802,59.025 74.236,59.138 74.166 C 59.251 74.096,59.343 73.790,59.343 73.486 C 59.343 73.182,59.445 72.933,59.570 72.933 C 59.694 72.933,59.796 72.633,59.796 72.267 C 59.796 71.901,59.880 71.549,59.982 71.486 C 60.084 71.423,60.358 70.398,60.592 69.208 C 60.826 68.018,61.100 67.044,61.200 67.044 C 61.300 67.044,61.382 66.839,61.382 66.588 C 61.382 66.337,61.471 65.955,61.581 65.739 C 62.071 64.771,62.516 62.990,62.515 62.005 L 62.514 60.929 54.603 60.929 C 45.807 60.929,46.120 60.874,45.860 62.465 C 45.784 62.928,45.576 63.990,45.398 64.824 C 45.220 65.658,45.074 66.601,45.074 66.919 C 45.074 67.237,44.972 67.497,44.847 67.497 C 44.723 67.497,44.621 67.956,44.621 68.516 C 44.621 69.077,44.519 69.536,44.394 69.536 C 44.270 69.536,44.168 69.892,44.168 70.328 C 44.168 70.764,44.073 71.121,43.957 71.121 C 43.842 71.121,43.684 71.707,43.607 72.424 C 43.529 73.140,43.369 73.903,43.251 74.119 C 43.132 74.336,43.035 74.763,43.035 75.068 C 43.035 75.374,42.933 75.687,42.809 75.764 C 42.684 75.841,42.582 76.255,42.582 76.684 C 42.582 77.112,42.493 77.463,42.385 77.463 C 42.276 77.463,42.119 78.072,42.035 78.815 C 41.951 79.559,41.784 80.227,41.666 80.301 C 41.547 80.374,41.450 80.836,41.450 81.327 C 41.450 81.818,41.348 82.220,41.223 82.220 C 41.099 82.220,40.997 82.576,40.997 83.012 C 40.997 83.448,40.907 83.805,40.796 83.805 C 40.686 83.805,40.526 84.467,40.439 85.275 C 40.352 86.084,40.188 86.803,40.073 86.874 C 39.958 86.945,39.864 87.354,39.864 87.782 C 39.864 88.211,39.762 88.562,39.638 88.562 C 39.513 88.562,39.411 88.963,39.411 89.454 C 39.411 89.945,39.309 90.410,39.185 90.487 C 39.060 90.564,38.958 90.871,38.958 91.169 C 38.958 91.467,38.805 92.298,38.618 93.015 C 38.431 93.732,38.279 94.748,38.279 95.272 C 38.279 95.796,38.180 96.259,38.059 96.300 C 37.939 96.342,37.815 96.707,37.785 97.112 C 37.754 97.517,37.649 97.848,37.551 97.848 C 37.453 97.848,37.373 98.199,37.373 98.628 C 37.373 99.056,37.271 99.470,37.146 99.547 C 37.022 99.624,36.908 99.961,36.893 100.296 C 36.873 100.766,36.842 100.802,36.758 100.453 C 36.698 100.204,36.557 99.903,36.445 99.785 C 36.332 99.666,36.240 99.284,36.240 98.935 C 36.240 98.587,36.138 98.301,36.014 98.301 C 35.889 98.301,35.787 97.945,35.787 97.508 C 35.787 97.072,35.697 96.716,35.587 96.716 C 35.477 96.716,35.316 96.054,35.229 95.246 C 35.143 94.437,34.978 93.718,34.863 93.647 C 34.749 93.576,34.655 93.167,34.655 92.739 C 34.655 92.310,34.553 91.959,34.428 91.959 C 34.304 91.959,34.202 91.602,34.202 91.166 C 34.202 90.730,34.100 90.374,33.975 90.374 C 33.851 90.374,33.749 90.017,33.749 89.581 C 33.749 89.145,33.665 88.788,33.564 88.788 C 33.399 88.788,33.064 87.168,32.699 84.598 C 32.628 84.100,32.478 83.595,32.366 83.477 C 32.255 83.358,32.163 82.931,32.163 82.528 C 32.163 82.124,32.075 81.739,31.966 81.672 C 31.858 81.605,31.701 80.940,31.616 80.193 C 31.532 79.447,31.365 78.776,31.247 78.702 C 31.128 78.629,31.031 78.218,31.031 77.790 C 31.031 77.361,30.929 77.010,30.804 77.010 C 30.680 77.010,30.578 76.653,30.578 76.217 C 30.578 75.781,30.497 75.425,30.398 75.425 C 30.299 75.425,30.093 74.737,29.940 73.896 C 29.787 73.055,29.602 72.035,29.528 71.629 C 29.455 71.223,29.304 70.834,29.194 70.766 C 29.083 70.697,28.992 70.410,28.992 70.126 C 28.992 69.843,28.916 69.535,28.822 69.442 C 28.673 69.293,28.359 67.893,27.940 65.513 C 27.868 65.107,27.719 64.719,27.608 64.650 C 27.497 64.582,27.407 64.175,27.407 63.747 C 27.407 63.318,27.305 62.967,27.180 62.967 C 27.055 62.967,26.954 62.654,26.954 62.271 C 26.954 60.912,27.060 60.929,18.476 60.929 L 10.646 60.929 10.646 62.401 M348.471 84.952 C 338.354 86.098,331.786 93.124,330.700 103.964 C 330.382 107.135,330.381 141.804,330.698 144.208 C 331.262 148.474,333.192 154.346,334.297 155.153 C 334.382 155.215,334.752 155.671,335.120 156.166 C 337.232 159.015,340.805 161.393,344.168 162.189 C 344.790 162.336,345.534 162.546,345.820 162.655 C 346.561 162.938,353.576 162.902,354.867 162.609 C 358.146 161.864,361.973 160.358,362.646 159.547 C 362.791 159.373,362.994 159.230,363.097 159.230 C 363.387 159.230,365.391 157.158,366.299 155.921 C 366.992 154.976,367.663 153.687,368.528 151.642 C 369.672 148.939,370.131 145.665,370.267 139.238 L 370.381 133.855 363.503 133.915 L 356.625 133.975 356.503 139.864 C 356.313 149.048,355.596 150.271,350.396 150.279 C 344.970 150.288,344.435 148.953,344.411 135.334 L 344.394 126.048 357.361 125.989 L 370.328 125.931 370.332 115.910 C 370.337 104.864,369.822 97.847,368.933 96.840 C 368.828 96.722,368.743 96.496,368.743 96.337 C 368.743 95.843,367.585 93.487,366.703 92.186 C 363.062 86.817,356.166 84.081,348.471 84.952 M78.256 85.617 C 78.179 85.742,77.587 85.848,76.940 85.854 C 75.838 85.863,74.009 86.236,73.499 86.555 C 73.375 86.633,72.942 86.767,72.537 86.854 C 72.132 86.941,71.801 87.106,71.801 87.221 C 71.801 87.335,71.616 87.429,71.390 87.429 C 71.165 87.429,70.761 87.633,70.494 87.882 C 70.226 88.131,69.847 88.335,69.651 88.335 C 69.455 88.335,69.236 88.488,69.165 88.675 C 69.093 88.862,68.891 89.015,68.716 89.015 C 68.370 89.015,65.308 92.035,64.353 93.318 C 64.028 93.754,63.706 94.162,63.637 94.224 C 63.329 94.503,62.288 96.923,62.288 97.361 C 62.288 97.629,62.186 97.848,62.061 97.848 C 61.937 97.848,61.835 98.205,61.835 98.641 C 61.835 99.077,61.743 99.434,61.630 99.434 C 61.077 99.434,60.606 145.181,61.153 145.728 C 61.279 145.854,61.382 146.491,61.382 147.144 C 61.382 147.797,61.484 148.394,61.608 148.471 C 61.733 148.548,61.835 148.911,61.835 149.277 C 61.835 149.644,61.925 149.943,62.035 149.943 C 62.146 149.943,62.305 150.400,62.388 150.957 C 62.472 151.515,62.636 152.031,62.754 152.103 C 62.871 152.176,62.967 152.433,62.967 152.675 C 62.967 152.917,63.069 153.114,63.194 153.114 C 63.318 153.114,63.420 153.267,63.420 153.454 C 63.420 153.641,63.522 153.794,63.647 153.794 C 63.771 153.794,63.873 153.985,63.873 154.219 C 63.873 154.453,64.026 154.771,64.213 154.926 C 64.400 155.081,64.553 155.326,64.553 155.470 C 64.553 155.614,64.757 155.879,65.006 156.059 C 65.255 156.238,65.459 156.492,65.459 156.621 C 65.459 156.751,65.732 157.060,66.065 157.308 C 66.399 157.555,67.251 158.332,67.958 159.034 C 68.665 159.737,69.462 160.380,69.730 160.465 C 69.997 160.550,70.215 160.714,70.215 160.831 C 70.215 160.947,70.356 161.042,70.527 161.042 C 70.699 161.042,70.968 161.197,71.125 161.386 C 71.282 161.576,71.855 161.843,72.399 161.979 C 72.942 162.116,73.386 162.318,73.386 162.428 C 73.386 162.538,73.635 162.627,73.939 162.627 C 74.243 162.627,74.555 162.729,74.632 162.854 C 74.709 162.978,75.114 163.080,75.532 163.080 C 75.951 163.080,76.335 163.208,76.387 163.364 C 76.459 163.579,77.685 163.647,81.491 163.647 C 85.197 163.647,86.574 163.573,86.784 163.364 C 86.939 163.208,87.346 163.080,87.688 163.080 C 88.029 163.080,88.371 162.978,88.448 162.854 C 88.525 162.729,88.837 162.627,89.141 162.627 C 89.445 162.627,89.694 162.525,89.694 162.401 C 89.694 162.276,89.846 162.174,90.032 162.174 C 90.504 162.174,92.186 161.425,92.186 161.215 C 92.186 161.120,92.390 161.042,92.639 161.042 C 92.888 161.042,93.092 160.945,93.092 160.826 C 93.092 160.707,93.445 160.443,93.876 160.238 C 94.308 160.033,94.722 159.672,94.797 159.435 C 94.873 159.197,95.037 159.003,95.163 159.003 C 95.512 159.003,98.528 155.842,98.528 155.475 C 98.528 155.298,98.611 155.153,98.712 155.153 C 98.991 155.153,99.848 153.439,100.016 152.545 C 100.097 152.111,100.229 151.755,100.310 151.755 C 100.627 151.755,101.032 150.447,101.492 147.931 C 101.845 145.998,101.665 99.535,101.302 99.173 C 101.147 99.018,101.019 98.656,101.019 98.369 C 101.019 98.083,100.917 97.848,100.793 97.848 C 100.668 97.848,100.566 97.593,100.566 97.282 C 100.566 96.971,100.464 96.716,100.340 96.716 C 100.215 96.716,100.113 96.557,100.113 96.363 C 100.113 95.979,99.208 94.265,98.660 93.612 C 97.859 92.655,96.337 90.978,95.859 90.525 C 95.574 90.255,95.123 89.805,94.855 89.524 C 94.588 89.244,94.278 89.015,94.167 89.015 C 94.056 89.015,93.823 88.887,93.650 88.732 C 92.900 88.059,92.644 87.882,92.422 87.882 C 92.292 87.882,92.186 87.780,92.186 87.656 C 92.186 87.531,91.982 87.429,91.733 87.429 C 91.484 87.429,91.280 87.335,91.280 87.221 C 91.280 87.106,90.948 86.941,90.544 86.854 C 90.139 86.767,89.706 86.633,89.581 86.555 C 89.112 86.261,87.280 85.863,86.353 85.854 C 85.824 85.848,85.391 85.742,85.391 85.617 C 85.391 85.476,84.074 85.391,81.893 85.391 C 79.806 85.391,78.339 85.482,78.256 85.617 M228.792 86.831 C 228.445 87.249,228.587 150.128,228.940 152.775 C 229.746 158.812,232.408 161.651,237.487 161.894 C 242.240 162.121,246.929 159.881,251.661 155.121 C 252.773 154.003,253.784 153.151,253.908 153.228 C 254.043 153.312,254.134 154.901,254.134 157.205 L 254.134 161.042 260.457 161.042 C 263.935 161.042,266.916 160.990,267.082 160.926 C 267.390 160.808,267.452 87.227,267.145 86.729 C 267.073 86.613,264.199 86.523,260.576 86.523 L 254.134 86.523 254.134 114.485 L 254.134 142.447 252.605 143.997 C 247.988 148.677,243.918 149.342,242.328 145.678 C 241.919 144.734,241.903 143.575,241.903 115.610 L 241.903 86.523 235.475 86.523 C 230.330 86.523,228.996 86.585,228.792 86.831 M112.393 87.245 C 112.036 87.602,111.988 150.969,112.344 151.189 C 112.469 151.266,112.571 152.088,112.571 153.014 C 112.571 153.987,112.667 154.700,112.797 154.700 C 112.922 154.700,113.024 154.943,113.024 155.240 C 113.024 155.537,113.176 156.073,113.362 156.429 C 113.548 156.786,113.701 157.257,113.702 157.475 C 113.703 157.693,113.780 157.871,113.874 157.871 C 113.969 157.871,114.192 158.201,114.370 158.604 C 114.671 159.284,116.677 161.495,116.993 161.495 C 117.070 161.495,117.286 161.648,117.473 161.835 C 117.660 162.022,118.054 162.174,118.349 162.174 C 118.645 162.174,118.949 162.276,119.026 162.401 C 119.103 162.525,119.517 162.627,119.945 162.627 C 120.374 162.627,120.725 162.729,120.725 162.854 C 120.725 162.985,121.442 163.080,122.424 163.080 C 123.405 163.080,124.122 162.985,124.122 162.854 C 124.122 162.729,124.581 162.627,125.142 162.627 C 125.702 162.627,126.161 162.537,126.161 162.427 C 126.161 162.316,126.619 162.157,127.180 162.073 C 127.741 161.989,128.199 161.843,128.199 161.750 C 128.199 161.656,128.556 161.439,128.992 161.268 C 129.428 161.097,129.785 160.887,129.785 160.801 C 129.785 160.716,130.065 160.589,130.408 160.520 C 130.750 160.450,131.256 160.183,131.531 159.925 C 131.806 159.667,132.093 159.456,132.170 159.456 C 132.246 159.456,132.451 159.329,132.624 159.173 C 133.317 158.552,133.623 158.324,133.762 158.324 C 133.843 158.324,134.610 157.636,135.467 156.795 C 136.324 155.954,137.179 155.135,137.368 154.974 C 137.674 154.715,137.712 155.051,137.712 157.957 C 137.712 159.758,137.774 161.393,137.850 161.590 C 138.105 162.255,151.838 162.117,152.309 161.445 C 152.769 160.787,152.855 88.556,152.397 87.550 L 152.133 86.970 144.979 87.030 L 137.826 87.089 137.712 115.289 L 137.599 143.488 136.183 144.904 C 135.405 145.682,134.677 146.319,134.566 146.319 C 134.454 146.319,134.305 146.472,134.233 146.659 C 134.161 146.846,133.946 146.999,133.756 146.999 C 133.565 146.999,133.409 147.101,133.409 147.225 C 133.409 147.350,133.262 147.452,133.082 147.452 C 132.902 147.452,132.619 147.646,132.454 147.882 C 131.707 148.948,127.757 148.554,127.749 147.414 C 127.747 147.206,127.619 146.994,127.463 146.942 C 127.239 146.868,127.156 140.590,127.067 116.969 L 126.954 87.089 119.811 87.030 C 114.444 86.985,112.599 87.038,112.393 87.245 M302.956 98.784 C 304.099 99.321,305.001 100.471,305.684 102.265 C 306.380 104.094,306.471 144.988,305.783 147.251 C 304.505 151.459,299.829 152.003,295.640 148.431 L 294.451 147.417 294.451 124.378 L 294.451 101.340 295.413 100.403 C 297.551 98.322,300.588 97.670,302.956 98.784 M353.578 99.116 C 355.898 100.471,356.346 101.923,356.454 108.437 L 356.542 113.703 350.411 113.703 L 344.281 113.703 344.281 109.019 C 344.281 106.443,344.376 104.023,344.492 103.640 C 344.608 103.258,344.836 102.487,344.999 101.928 C 345.864 98.957,350.631 97.394,353.578 99.116 M83.541 99.676 C 83.582 99.792,83.812 99.887,84.051 99.887 C 84.289 99.887,84.678 100.081,84.915 100.317 C 85.152 100.554,85.534 100.809,85.765 100.883 C 86.954 101.267,86.985 101.874,86.980 124.519 C 86.978 136.182,86.889 145.413,86.780 145.413 C 86.671 145.413,86.529 145.811,86.464 146.298 C 86.329 147.307,84.363 149.490,83.589 149.490 C 83.349 149.490,83.089 149.592,83.012 149.717 C 82.935 149.841,82.222 149.943,81.427 149.943 C 80.632 149.943,79.918 149.841,79.841 149.717 C 79.764 149.592,79.500 149.490,79.253 149.490 C 78.689 149.490,77.199 148.029,76.771 147.055 C 76.592 146.651,76.370 146.319,76.275 146.319 C 76.181 146.319,76.104 136.382,76.104 124.236 C 76.104 109.664,76.181 102.152,76.331 102.152 C 76.455 102.152,76.557 102.041,76.557 101.906 C 76.557 101.210,78.831 99.608,80.181 99.353 C 81.012 99.197,83.453 99.431,83.541 99.676 " stroke="none" fill="#fbfbfb" fill-rule="evenodd"></path><path id="path1" d="M218.913 36.931 C 216.795 37.016,211.669 37.166,207.522 37.266 C 203.374 37.365,199.928 37.532,199.864 37.636 C 199.800 37.740,198.326 37.826,196.589 37.826 C 194.635 37.826,193.431 37.912,193.431 38.052 C 193.431 38.177,192.928 38.279,192.312 38.279 C 191.697 38.279,191.133 38.376,191.060 38.495 C 190.986 38.613,190.318 38.780,189.574 38.864 C 188.830 38.948,188.222 39.105,188.222 39.214 C 188.222 39.322,187.967 39.411,187.656 39.411 C 187.344 39.411,187.089 39.513,187.089 39.638 C 187.089 39.762,186.897 39.864,186.662 39.864 C 186.427 39.864,185.943 40.016,185.586 40.202 C 185.230 40.389,184.759 40.541,184.541 40.542 C 184.323 40.543,184.145 40.646,184.145 40.770 C 184.145 40.895,183.992 40.997,183.805 40.997 C 183.618 40.997,183.465 41.099,183.465 41.223 C 183.465 41.348,183.262 41.450,183.012 41.450 C 182.763 41.450,182.559 41.526,182.559 41.619 C 182.558 41.713,182.099 41.978,181.539 42.208 C 180.979 42.439,180.521 42.719,180.521 42.831 C 180.521 42.943,180.368 43.035,180.181 43.035 C 179.994 43.035,179.841 43.137,179.841 43.262 C 179.841 43.386,179.735 43.488,179.605 43.488 C 179.348 43.488,177.314 44.960,176.510 45.728 C 176.235 45.991,175.904 46.206,175.774 46.206 C 175.644 46.206,175.538 46.301,175.538 46.418 C 175.538 46.534,174.773 47.404,173.839 48.351 C 172.905 49.297,172.140 50.172,172.140 50.295 C 172.140 50.417,171.784 50.864,171.348 51.287 C 170.912 51.711,170.555 52.155,170.555 52.275 C 170.555 52.395,170.402 52.620,170.215 52.775 C 170.028 52.930,169.875 53.248,169.875 53.482 C 169.875 53.716,169.773 53.907,169.649 53.907 C 169.524 53.907,169.422 54.013,169.422 54.143 C 169.422 54.273,169.224 54.592,168.981 54.853 C 168.738 55.114,168.475 55.619,168.396 55.976 C 168.318 56.333,168.160 56.625,168.045 56.625 C 167.931 56.625,167.837 56.823,167.837 57.065 C 167.837 57.307,167.735 57.567,167.610 57.644 C 167.486 57.721,167.384 57.974,167.384 58.205 C 167.384 58.437,167.280 58.660,167.153 58.703 C 167.026 58.745,166.860 59.312,166.783 59.962 C 166.706 60.612,166.555 61.089,166.447 61.023 C 166.339 60.956,166.251 61.316,166.251 61.821 C 166.251 62.327,166.149 62.741,166.025 62.741 C 165.900 62.741,165.798 63.199,165.798 63.760 C 165.798 64.320,165.707 64.779,165.595 64.779 C 165.483 64.779,165.377 66.073,165.359 67.655 C 165.341 69.237,165.237 70.639,165.127 70.772 C 165.017 70.904,164.853 73.585,164.763 76.730 C 164.673 79.874,164.512 82.446,164.406 82.446 C 164.300 82.446,164.213 84.383,164.213 86.750 C 164.213 89.468,164.129 91.053,163.986 91.053 C 163.837 91.053,163.760 98.452,163.760 112.797 C 163.760 127.142,163.837 134.541,163.986 134.541 C 164.129 134.541,164.213 136.127,164.213 138.845 C 164.213 141.212,164.300 143.148,164.406 143.148 C 164.512 143.148,164.673 145.717,164.763 148.857 C 164.853 151.997,165.014 154.730,165.121 154.930 C 165.228 155.129,165.338 156.540,165.367 158.063 C 165.395 159.587,165.504 160.887,165.609 160.951 C 165.713 161.016,165.798 161.413,165.798 161.835 C 165.798 162.256,165.900 162.664,166.025 162.741 C 166.149 162.818,166.251 163.333,166.251 163.887 C 166.251 164.440,166.344 164.892,166.458 164.892 C 166.572 164.892,166.733 165.300,166.817 165.797 C 166.902 166.295,167.063 166.760,167.177 166.830 C 167.291 166.900,167.384 167.155,167.384 167.397 C 167.384 167.639,167.486 167.837,167.610 167.837 C 167.735 167.837,167.837 168.041,167.837 168.290 C 167.837 168.539,167.939 168.743,168.063 168.743 C 168.188 168.743,168.290 168.855,168.290 168.992 C 168.290 169.400,169.032 170.869,169.423 171.234 C 169.623 171.421,169.927 171.919,170.097 172.340 C 170.268 172.761,170.645 173.342,170.934 173.632 C 171.224 173.921,171.461 174.221,171.461 174.298 C 171.461 174.375,171.588 174.580,171.744 174.754 C 172.351 175.431,172.593 175.751,172.593 175.876 C 172.593 176.112,176.415 179.841,176.657 179.841 C 176.787 179.841,177.020 180.045,177.176 180.294 C 177.332 180.544,177.580 180.747,177.728 180.747 C 177.876 180.747,178.375 181.104,178.838 181.540 C 179.300 181.976,179.806 182.333,179.962 182.333 C 180.118 182.333,180.305 182.486,180.376 182.673 C 180.448 182.860,180.714 183.012,180.967 183.012 C 181.220 183.012,181.427 183.095,181.427 183.197 C 181.427 183.298,181.784 183.521,182.220 183.692 C 182.656 183.863,183.012 184.078,183.012 184.169 C 183.012 184.261,183.318 184.403,183.692 184.485 C 184.066 184.567,184.371 184.728,184.371 184.842 C 184.371 184.957,184.626 185.051,184.938 185.051 C 185.249 185.051,185.504 185.131,185.504 185.228 C 185.504 185.436,187.018 185.891,188.392 186.097 C 188.921 186.176,189.354 186.330,189.354 186.439 C 189.354 186.548,189.813 186.636,190.374 186.636 C 190.934 186.636,191.393 186.738,191.393 186.863 C 191.393 186.988,191.954 187.089,192.639 187.089 C 193.324 187.089,193.884 187.191,193.884 187.316 C 193.884 187.458,195.342 187.542,197.803 187.542 C 199.958 187.542,201.818 187.637,201.937 187.752 C 202.058 187.871,207.177 188.033,213.703 188.126 C 223.906 188.271,225.286 188.333,225.520 188.653 C 226.053 189.383,327.746 189.299,327.746 188.569 C 327.746 188.352,330.400 188.251,339.468 188.124 C 346.235 188.029,351.221 187.871,351.265 187.751 C 351.307 187.635,353.133 187.542,355.398 187.542 C 357.953 187.542,359.456 187.459,359.456 187.316 C 359.456 187.191,359.966 187.089,360.589 187.089 C 361.212 187.089,361.721 186.988,361.721 186.863 C 361.721 186.738,362.180 186.636,362.741 186.636 C 363.301 186.636,363.760 186.550,363.760 186.443 C 363.760 186.337,364.415 186.142,365.215 186.009 C 366.015 185.877,367.060 185.596,367.536 185.385 C 369.329 184.593,369.991 184.253,370.064 184.088 C 370.106 183.995,370.335 183.918,370.574 183.918 C 370.813 183.918,371.008 183.817,371.008 183.692 C 371.008 183.567,371.161 183.465,371.348 183.465 C 371.535 183.465,371.687 183.364,371.687 183.239 C 371.687 183.114,371.847 183.012,372.042 183.012 C 372.413 183.012,373.691 182.130,374.584 181.257 C 374.871 180.977,375.201 180.747,375.318 180.747 C 375.937 180.747,380.873 175.753,381.792 174.197 C 382.019 173.813,382.272 173.499,382.354 173.499 C 382.437 173.499,382.631 173.194,382.786 172.820 C 382.941 172.446,383.157 172.140,383.266 172.140 C 383.376 172.140,383.465 171.995,383.465 171.817 C 383.465 171.639,383.596 171.359,383.756 171.194 C 384.294 170.639,385.961 166.992,386.119 166.025 C 386.170 165.713,386.307 165.425,386.424 165.383 C 386.541 165.342,386.636 164.959,386.636 164.534 C 386.636 164.108,386.730 163.760,386.844 163.760 C 386.958 163.760,387.123 162.994,387.210 162.058 C 387.298 161.122,387.460 160.300,387.569 160.233 C 387.679 160.165,387.769 159.000,387.769 157.644 C 387.769 156.246,387.867 155.119,387.995 155.040 C 388.125 154.960,388.222 153.796,388.222 152.322 C 388.222 150.847,388.319 149.684,388.448 149.604 C 388.582 149.521,388.675 148.181,388.675 146.349 C 388.675 143.962,388.753 143.132,389.008 142.795 C 389.517 142.122,389.524 82.950,389.015 82.755 C 388.734 82.647,388.675 82.040,388.675 79.251 C 388.675 77.153,388.589 75.878,388.448 75.878 C 388.310 75.878,388.222 74.783,388.222 73.046 C 388.222 71.310,388.134 70.215,387.995 70.215 C 387.859 70.215,387.769 69.271,387.769 67.837 C 387.769 66.529,387.680 65.459,387.572 65.459 C 387.463 65.459,387.303 64.643,387.216 63.647 C 387.129 62.650,386.989 61.834,386.904 61.834 C 386.819 61.834,386.726 61.503,386.698 61.100 C 386.669 60.696,386.542 60.331,386.415 60.289 C 386.288 60.246,386.183 59.863,386.183 59.438 C 386.183 59.012,386.107 58.664,386.014 58.664 C 385.920 58.664,385.648 58.052,385.409 57.305 C 385.171 56.557,384.890 55.946,384.787 55.946 C 384.683 55.946,384.598 55.764,384.598 55.543 C 384.598 55.321,384.398 54.995,384.153 54.819 C 383.909 54.643,383.649 54.226,383.576 53.894 C 383.503 53.561,383.244 53.075,383.001 52.815 C 382.758 52.554,382.559 52.234,382.559 52.105 C 382.559 51.975,382.474 51.869,382.369 51.869 C 382.265 51.869,382.063 51.614,381.921 51.302 C 381.779 50.991,381.508 50.736,381.319 50.736 C 381.129 50.736,380.974 50.566,380.974 50.359 C 380.974 49.798,375.343 44.367,374.146 43.775 C 373.584 43.496,372.887 43.063,372.597 42.812 C 372.308 42.561,371.934 42.356,371.766 42.356 C 371.598 42.356,371.461 42.254,371.461 42.129 C 371.461 42.005,371.257 41.903,371.008 41.903 C 370.759 41.903,370.555 41.801,370.555 41.676 C 370.555 41.552,370.402 41.450,370.215 41.450 C 370.028 41.450,369.875 41.348,369.875 41.223 C 369.875 41.099,369.680 40.997,369.441 40.997 C 369.203 40.997,368.971 40.888,368.927 40.755 C 368.883 40.623,368.415 40.457,367.889 40.386 C 367.362 40.315,366.931 40.169,366.931 40.061 C 366.931 39.953,366.778 39.864,366.591 39.864 C 366.404 39.864,366.251 39.762,366.251 39.638 C 366.251 39.513,365.946 39.411,365.572 39.411 C 365.198 39.411,364.892 39.322,364.892 39.214 C 364.892 39.105,364.281 38.947,363.533 38.863 C 362.786 38.778,362.174 38.612,362.174 38.494 C 362.174 38.375,361.614 38.279,360.929 38.279 C 360.243 38.279,359.683 38.177,359.683 38.052 C 359.683 37.912,358.479 37.826,356.525 37.826 C 354.789 37.826,353.315 37.740,353.250 37.636 C 353.186 37.531,349.892 37.375,345.932 37.288 C 341.972 37.202,336.489 37.037,333.749 36.922 C 328.101 36.686,224.835 36.693,218.913 36.931 M228.554 60.257 C 228.993 60.492,229.269 74.667,228.855 75.746 C 228.733 76.063,227.812 76.104,220.814 76.104 L 212.912 76.104 212.854 118.743 L 212.797 161.382 205.549 161.445 C 201.563 161.480,198.072 161.452,197.792 161.384 L 197.282 161.260 197.282 118.685 L 197.282 76.110 189.411 76.051 L 181.540 75.991 181.481 68.192 C 181.434 62.103,181.484 60.353,181.707 60.211 C 182.150 59.930,228.027 59.975,228.554 60.257 M294.466 60.257 C 294.892 60.485,294.904 60.912,294.922 76.282 C 294.931 84.967,294.993 91.920,295.058 91.733 C 295.283 91.083,298.060 88.623,299.657 87.658 C 307.409 82.974,315.992 85.930,318.831 94.262 C 319.899 97.395,319.932 98.329,319.932 125.595 L 319.932 151.189 319.322 153.173 C 316.269 163.106,304.788 165.537,296.731 157.957 L 294.904 156.238 294.904 158.612 C 294.904 161.762,295.554 161.513,287.515 161.442 L 280.747 161.382 280.690 110.886 C 280.645 70.638,280.691 60.353,280.917 60.210 C 281.349 59.935,293.946 59.979,294.466 60.257 M357.129 85.180 C 359.156 85.721,360.520 86.246,361.303 86.787 C 361.634 87.016,361.972 87.203,362.055 87.203 C 362.382 87.203,363.947 88.511,365.297 89.913 C 367.694 92.403,369.469 96.052,369.876 99.324 C 370.006 100.373,370.225 101.718,370.362 102.314 C 370.736 103.942,370.904 125.627,370.546 126.059 C 370.313 126.339,368.372 126.387,357.390 126.387 L 344.507 126.387 344.508 134.371 C 344.510 148.030,345.234 149.943,350.401 149.943 C 355.289 149.943,356.043 148.572,356.223 139.354 L 356.335 133.635 363.441 133.635 L 370.546 133.635 370.696 134.231 C 370.952 135.253,370.601 144.719,370.235 146.659 C 368.102 157.957,361.798 163.180,350.283 163.190 C 339.314 163.200,332.575 157.329,330.528 145.980 C 330.263 144.505,330.191 105.040,330.449 102.597 C 330.841 98.903,332.396 94.925,334.428 92.420 C 337.754 88.321,340.957 86.224,345.640 85.080 C 348.512 84.379,354.316 84.429,357.129 85.180 M242.356 115.742 C 242.481 148.346,242.372 146.237,243.984 147.220 C 245.932 148.407,248.965 147.162,252.283 143.812 L 253.679 142.403 253.736 114.407 L 253.794 86.410 260.702 86.410 L 267.610 86.410 267.668 123.769 C 267.713 153.506,267.667 161.164,267.441 161.308 C 267.112 161.517,254.575 161.563,254.039 161.357 C 253.732 161.240,253.681 160.684,253.681 157.507 C 253.681 155.465,253.650 153.794,253.612 153.794 C 253.575 153.794,252.682 154.635,251.630 155.663 C 241.337 165.710,230.271 164.457,228.651 153.060 C 228.301 150.596,228.124 86.787,228.467 86.444 C 228.552 86.360,231.686 86.317,235.432 86.350 L 242.242 86.410 242.356 115.742 M297.848 99.118 C 297.163 99.428,296.220 100.055,295.753 100.510 L 294.904 101.338 294.904 124.359 L 294.904 147.381 296.063 148.359 C 298.908 150.758,302.594 151.089,304.455 149.113 C 305.816 147.667,305.797 148.030,305.727 124.434 L 305.663 102.945 305.073 101.699 C 303.688 98.775,300.847 97.760,297.848 99.118 M347.565 99.358 C 345.230 100.592,344.507 103.005,344.507 109.570 L 344.507 113.477 350.424 113.477 L 356.341 113.477 356.220 108.664 C 356.060 102.332,355.500 100.535,353.338 99.432 C 352.189 98.846,348.621 98.800,347.565 99.358 " stroke="none" fill="#ec2b2b" fill-rule="evenodd"></path><path id="path2" d="M205.210 60.250 C 218.103 60.315,228.679 60.392,228.712 60.422 C 228.745 60.451,228.745 63.916,228.712 68.120 L 228.652 75.764 220.838 75.882 L 213.024 76.000 220.870 76.052 C 227.847 76.098,228.732 76.064,228.855 75.746 C 229.269 74.667,228.993 60.492,228.554 60.257 C 228.258 60.099,220.585 60.040,204.941 60.077 L 181.767 60.132 205.210 60.250 M287.769 60.251 C 291.506 60.322,294.589 60.401,294.621 60.428 C 294.652 60.454,294.702 67.585,294.732 76.274 L 294.787 92.072 294.848 76.331 C 294.904 61.732,294.880 60.568,294.523 60.306 C 294.232 60.092,292.531 60.035,287.556 60.073 L 280.974 60.123 287.769 60.251 M181.485 75.651 C 181.565 75.945,182.639 75.992,189.373 75.996 L 197.169 76.000 189.479 75.936 C 183.692 75.887,181.741 75.802,181.591 75.591 C 181.446 75.387,181.417 75.403,181.485 75.651 M197.393 118.686 C 197.393 142.169,197.419 151.775,197.452 140.034 C 197.484 128.293,197.484 109.080,197.452 97.339 C 197.419 85.597,197.393 95.204,197.393 118.686 M354.757 84.867 C 354.975 84.924,355.331 84.924,355.549 84.867 C 355.767 84.810,355.589 84.764,355.153 84.764 C 354.717 84.764,354.539 84.810,354.757 84.867 M344.394 85.391 C 344.109 85.513,344.067 85.585,344.281 85.585 C 344.468 85.585,344.824 85.498,345.074 85.391 C 345.359 85.268,345.401 85.196,345.187 85.196 C 345.000 85.196,344.643 85.284,344.394 85.391 M357.305 85.391 C 357.554 85.498,357.911 85.585,358.097 85.585 C 358.312 85.585,358.270 85.513,357.984 85.391 C 357.735 85.284,357.378 85.196,357.191 85.196 C 356.977 85.196,357.019 85.268,357.305 85.391 M306.285 85.553 C 306.628 85.605,307.189 85.605,307.531 85.553 C 307.874 85.501,307.593 85.459,306.908 85.459 C 306.223 85.459,305.943 85.501,306.285 85.553 M303.624 85.844 C 303.338 85.966,303.297 86.038,303.511 86.038 C 303.698 86.038,304.054 85.951,304.304 85.844 C 304.589 85.721,304.631 85.649,304.417 85.649 C 304.230 85.649,303.873 85.737,303.624 85.844 M358.777 85.806 C 358.964 85.921,359.371 86.084,359.683 86.167 C 360.076 86.272,360.146 86.254,359.909 86.108 C 359.723 85.993,359.315 85.830,359.003 85.747 C 358.610 85.642,358.541 85.660,358.777 85.806 M342.072 86.203 C 341.668 86.380,341.336 86.577,341.336 86.640 C 341.336 86.758,342.925 86.142,343.118 85.950 C 343.311 85.757,342.820 85.876,342.072 86.203 M228.418 86.577 C 228.358 86.734,228.336 101.387,228.368 119.139 L 228.427 151.416 228.483 118.969 L 228.539 86.523 235.334 86.523 L 242.129 86.523 242.137 115.685 C 242.144 141.485,242.185 144.912,242.493 145.413 C 242.684 145.725,242.756 145.776,242.654 145.527 C 242.552 145.277,242.418 131.874,242.356 115.742 L 242.242 86.410 235.385 86.350 C 230.021 86.303,228.504 86.352,228.418 86.577 M253.786 86.577 C 253.726 86.734,253.704 99.349,253.737 114.609 L 253.796 142.356 253.851 114.439 L 253.907 86.523 260.701 86.523 L 267.496 86.523 267.554 123.896 L 267.612 161.268 267.611 123.839 L 267.610 86.410 260.753 86.350 C 255.389 86.303,253.872 86.352,253.786 86.577 M311.684 86.381 C 311.917 86.590,313.250 87.203,313.250 87.101 C 313.250 86.971,311.995 86.297,311.752 86.297 C 311.662 86.297,311.632 86.335,311.684 86.381 M339.605 87.536 C 338.965 87.956,338.361 88.435,338.264 88.601 C 338.161 88.776,338.270 88.747,338.523 88.532 C 338.762 88.329,339.468 87.847,340.091 87.461 C 340.713 87.074,341.121 86.762,340.997 86.765 C 340.872 86.769,340.246 87.116,339.605 87.536 M313.477 87.273 C 313.477 87.326,313.910 87.655,314.439 88.004 C 314.969 88.353,315.282 88.494,315.136 88.317 C 314.855 87.977,313.477 87.110,313.477 87.273 M363.080 87.965 C 363.080 88.027,363.386 88.296,363.760 88.562 C 364.134 88.828,364.439 88.995,364.439 88.932 C 364.439 88.870,364.134 88.601,363.760 88.335 C 363.386 88.069,363.080 87.902,363.080 87.965 M297.407 89.249 C 296.653 89.877,296.036 90.445,296.036 90.513 C 296.036 90.613,296.872 89.955,298.856 88.289 C 298.975 88.190,299.005 88.109,298.925 88.109 C 298.844 88.109,298.161 88.622,297.407 89.249 M315.963 89.461 C 316.227 89.831,316.558 90.205,316.699 90.292 C 316.841 90.380,316.671 90.077,316.322 89.620 C 315.565 88.627,315.280 88.501,315.963 89.461 M336.347 90.317 L 334.881 91.846 336.410 90.380 C 337.251 89.574,337.939 88.886,337.939 88.851 C 337.939 88.685,337.708 88.897,336.347 90.317 M366.477 91.450 C 366.774 91.854,367.051 92.186,367.095 92.186 C 367.267 92.186,366.705 91.336,366.334 91.035 C 366.089 90.836,366.144 90.994,366.477 91.450 M317.826 92.294 C 318.097 92.852,318.358 93.269,318.405 93.222 C 318.508 93.119,317.592 91.280,317.439 91.280 C 317.381 91.280,317.555 91.736,317.826 92.294 M319.434 97.622 C 319.434 98.307,319.476 98.587,319.528 98.245 C 319.580 97.902,319.580 97.341,319.528 96.999 C 319.476 96.656,319.434 96.937,319.434 97.622 M369.676 99.226 C 369.690 99.776,369.783 100.532,369.881 100.906 C 369.990 101.318,370.012 100.962,369.937 100.000 C 369.797 98.200,369.635 97.722,369.676 99.226 M349.666 98.920 C 350.199 98.968,351.014 98.968,351.478 98.919 C 351.942 98.870,351.506 98.831,350.510 98.832 C 349.513 98.833,349.133 98.873,349.666 98.920 M319.749 100.227 C 319.819 100.974,319.914 101.628,319.960 101.680 C 320.112 101.848,319.997 100.246,319.807 99.547 C 319.686 99.100,319.666 99.333,319.749 100.227 M330.820 100.016 C 330.737 100.348,330.712 100.663,330.766 100.717 C 330.819 100.770,330.931 100.542,331.014 100.210 C 331.098 99.878,331.122 99.563,331.069 99.510 C 331.015 99.456,330.904 99.684,330.820 100.016 M295.516 100.519 L 294.677 101.378 294.677 124.380 L 294.677 147.382 295.187 147.813 C 295.696 148.244,295.696 148.244,295.300 147.774 C 294.928 147.332,294.904 145.879,294.904 124.341 L 294.904 101.378 295.742 100.519 C 296.204 100.047,296.530 99.660,296.468 99.660 C 296.406 99.660,295.977 100.047,295.516 100.519 M346.094 100.226 C 345.802 100.537,345.605 100.829,345.658 100.875 C 345.710 100.922,345.990 100.667,346.280 100.310 C 346.928 99.510,346.814 99.459,346.094 100.226 M354.589 100.453 C 355.497 101.714,355.747 101.947,355.242 101.061 C 355.006 100.647,354.616 100.138,354.375 99.928 C 354.120 99.706,354.210 99.926,354.589 100.453 M330.529 102.265 C 330.531 102.888,330.575 103.116,330.627 102.772 C 330.679 102.427,330.678 101.918,330.624 101.639 C 330.570 101.360,330.527 101.642,330.529 102.265 M355.744 102.718 C 355.930 103.551,356.060 103.732,356.055 103.152 C 356.054 102.913,355.948 102.565,355.822 102.378 C 355.654 102.130,355.633 102.222,355.744 102.718 M305.720 121.076 C 305.752 131.036,305.806 140.764,305.840 142.695 C 305.874 144.626,305.912 136.778,305.925 125.255 C 305.938 113.732,305.884 104.003,305.806 103.635 C 305.727 103.267,305.689 111.116,305.720 121.076 M370.393 104.077 C 370.395 104.700,370.439 104.928,370.491 104.584 C 370.543 104.239,370.542 103.730,370.488 103.451 C 370.434 103.172,370.392 103.454,370.393 104.077 M330.300 104.417 C 330.300 104.977,330.344 105.207,330.398 104.926 C 330.452 104.646,330.452 104.187,330.398 103.907 C 330.344 103.627,330.300 103.856,330.300 104.417 M356.250 108.663 L 356.337 113.469 350.479 113.535 L 344.621 113.601 350.510 113.596 L 356.399 113.590 356.461 109.797 C 356.495 107.712,356.442 105.522,356.343 104.931 C 356.238 104.303,356.199 105.853,356.250 108.663 M370.554 115.629 L 370.442 126.048 357.418 126.164 L 344.394 126.280 357.334 126.333 C 368.038 126.378,370.317 126.334,370.530 126.078 C 370.714 125.856,370.769 122.892,370.726 115.489 L 370.666 105.210 370.554 115.629 M356.335 138.165 C 356.306 140.719,356.235 143.369,356.178 144.054 L 356.074 145.300 356.297 144.067 C 356.420 143.389,356.491 140.739,356.455 138.178 L 356.389 133.522 356.335 138.165 M370.650 138.392 C 370.650 140.821,370.683 141.815,370.724 140.600 C 370.765 139.386,370.765 137.398,370.724 136.183 C 370.683 134.969,370.650 135.963,370.650 138.392 M344.560 143.601 C 344.560 144.037,344.607 144.216,344.663 143.998 C 344.720 143.780,344.720 143.423,344.663 143.205 C 344.607 142.987,344.560 143.165,344.560 143.601 M370.367 143.828 C 370.343 144.388,370.275 145.255,370.216 145.753 L 370.109 146.659 370.341 145.753 C 370.469 145.255,370.537 144.388,370.492 143.828 L 370.410 142.809 370.367 143.828 M330.300 144.054 C 330.300 144.615,330.344 144.844,330.398 144.564 C 330.452 144.284,330.452 143.825,330.398 143.545 C 330.344 143.264,330.300 143.494,330.300 144.054 M355.747 146.121 C 355.559 147.065,355.742 147.248,355.946 146.319 C 356.032 145.928,356.055 145.560,355.997 145.503 C 355.939 145.445,355.827 145.723,355.747 146.121 M242.815 146.243 C 242.807 146.561,244.095 147.679,244.468 147.678 C 244.614 147.677,244.412 147.480,244.018 147.240 C 243.624 147.000,243.194 146.618,243.062 146.391 C 242.930 146.165,242.819 146.098,242.815 146.243 M330.729 146.886 C 330.726 147.135,330.810 147.542,330.917 147.792 C 331.165 148.369,331.165 147.773,330.917 146.999 C 330.772 146.544,330.735 146.521,330.729 146.886 M369.903 147.339 C 369.885 147.588,369.817 148.046,369.753 148.358 L 369.636 148.924 369.879 148.368 C 370.012 148.063,370.080 147.604,370.029 147.349 C 369.939 146.898,369.936 146.897,369.903 147.339 M304.289 149.320 L 303.624 150.057 304.360 149.391 C 305.046 148.771,305.200 148.584,305.025 148.584 C 304.986 148.584,304.655 148.916,304.289 149.320 M319.871 149.943 C 319.871 150.379,319.918 150.558,319.975 150.340 C 320.032 150.122,320.032 149.765,319.975 149.547 C 319.918 149.329,319.871 149.507,319.871 149.943 M369.217 150.190 C 369.063 150.702,368.980 151.162,369.031 151.213 C 369.082 151.264,369.249 150.887,369.402 150.376 C 369.555 149.865,369.639 149.405,369.588 149.354 C 369.537 149.303,369.370 149.679,369.217 150.190 M349.434 150.109 C 349.963 150.157,350.830 150.157,351.359 150.109 C 351.888 150.062,351.455 150.023,350.396 150.023 C 349.337 150.023,348.904 150.062,349.434 150.109 M331.614 150.396 C 331.613 150.723,332.252 152.019,332.268 151.725 C 332.273 151.646,332.127 151.238,331.945 150.819 C 331.763 150.400,331.614 150.210,331.614 150.396 M300.510 150.556 C 300.790 150.610,301.249 150.610,301.529 150.556 C 301.809 150.502,301.580 150.458,301.019 150.458 C 300.459 150.458,300.229 150.502,300.510 150.556 M319.507 151.557 C 319.319 152.501,319.502 152.684,319.706 151.755 C 319.792 151.364,319.815 150.996,319.757 150.939 C 319.699 150.881,319.587 151.159,319.507 151.557 M253.341 153.567 C 253.264 153.692,253.306 153.794,253.435 153.794 C 253.585 153.794,253.694 155.168,253.738 157.588 L 253.806 161.382 253.856 157.361 C 253.903 153.676,253.790 152.841,253.341 153.567 M318.189 155.638 C 317.854 156.368,317.623 156.965,317.676 156.965 C 317.840 156.965,318.943 154.675,318.869 154.487 C 318.831 154.390,318.525 154.908,318.189 155.638 M333.839 155.040 C 334.221 155.778,334.535 156.188,334.533 155.946 C 334.532 155.821,334.323 155.464,334.068 155.153 C 333.760 154.777,333.684 154.739,333.839 155.040 M251.065 156.116 L 250.170 157.078 251.133 156.183 C 251.662 155.690,252.095 155.257,252.095 155.220 C 252.095 155.049,251.898 155.220,251.065 156.116 M294.628 158.607 L 294.564 161.155 287.784 161.215 C 282.520 161.262,280.960 161.211,280.802 160.989 C 280.650 160.774,280.623 160.787,280.692 161.042 C 280.813 161.483,294.073 161.676,294.593 161.244 C 294.820 161.056,294.904 160.343,294.904 158.586 L 294.904 156.185 296.433 157.651 L 297.961 159.117 296.496 157.588 C 294.632 155.644,294.703 155.605,294.628 158.607 M316.440 158.353 C 315.890 158.992,314.829 159.910,314.083 160.392 C 313.337 160.874,312.821 161.268,312.936 161.268 C 313.549 161.268,316.240 159.055,317.135 157.814 C 317.831 156.850,317.541 157.075,316.440 158.353 M230.537 158.673 C 230.796 159.188,232.950 161.268,233.224 161.268 C 233.320 161.268,233.023 160.959,232.563 160.580 C 232.104 160.201,231.408 159.513,231.016 159.051 C 230.625 158.589,230.409 158.419,230.537 158.673 M337.825 159.421 C 338.072 159.713,338.479 160.056,338.729 160.185 C 339.210 160.431,339.140 160.355,338.054 159.453 C 337.400 158.910,337.392 158.909,337.825 159.421 M205.210 161.268 L 197.622 161.391 205.140 161.443 C 209.964 161.476,212.707 161.414,212.797 161.268 C 212.874 161.144,212.906 161.065,212.867 161.094 C 212.829 161.123,209.383 161.201,205.210 161.268 M257.361 161.438 C 259.199 161.476,262.206 161.476,264.043 161.438 C 265.881 161.400,264.377 161.369,260.702 161.369 C 257.027 161.369,255.524 161.400,257.361 161.438 M234.768 161.948 C 235.017 162.055,235.425 162.140,235.674 162.136 C 236.038 162.131,236.016 162.094,235.561 161.948 C 234.786 161.700,234.191 161.700,234.768 161.948 M240.770 161.948 C 240.315 162.094,240.293 162.131,240.657 162.136 C 240.906 162.140,241.314 162.055,241.563 161.948 C 242.140 161.700,241.545 161.700,240.770 161.948 M304.190 161.952 C 304.752 162.128,307.297 162.250,307.116 162.092 C 307.064 162.047,306.257 161.958,305.323 161.893 C 304.364 161.827,303.871 161.852,304.190 161.952 M308.550 162.110 C 308.893 162.162,309.454 162.162,309.796 162.110 C 310.139 162.058,309.858 162.016,309.173 162.016 C 308.488 162.016,308.208 162.058,308.550 162.110 M237.322 162.341 C 237.855 162.388,238.670 162.388,239.134 162.339 C 239.598 162.290,239.162 162.251,238.165 162.252 C 237.169 162.253,236.789 162.293,237.322 162.341 M343.375 162.391 C 343.562 162.517,343.910 162.622,344.149 162.624 C 344.728 162.629,344.547 162.499,343.715 162.313 C 343.218 162.202,343.127 162.223,343.375 162.391 M353.740 163.014 C 354.022 163.068,354.429 163.066,354.646 163.010 C 354.862 162.953,354.632 162.909,354.134 162.911 C 353.635 162.914,353.458 162.960,353.740 163.014 M348.877 163.249 C 349.723 163.292,351.048 163.292,351.821 163.248 C 352.595 163.204,351.903 163.168,350.283 163.168 C 348.664 163.169,348.031 163.205,348.877 163.249 " stroke="none" fill="#f46d6d" fill-rule="evenodd"></path><path id="path3" d="M193.262 60.419 C 199.708 60.452,210.258 60.452,216.704 60.419 C 223.151 60.386,217.877 60.358,204.983 60.358 C 192.089 60.358,186.815 60.386,193.262 60.419 M284.216 60.419 C 286.123 60.457,289.181 60.456,291.011 60.418 C 292.840 60.380,291.280 60.349,287.542 60.350 C 283.805 60.350,282.308 60.381,284.216 60.419 M294.562 76.199 C 294.564 90.082,294.606 92.046,294.904 92.127 C 295.154 92.196,295.169 92.167,294.962 92.021 C 294.743 91.866,294.667 88.314,294.620 76.092 L 294.559 60.362 294.562 76.199 M181.528 68.063 C 181.528 72.174,181.559 73.888,181.596 71.872 C 181.634 69.855,181.634 66.492,181.597 64.397 C 181.559 62.303,181.528 63.952,181.528 68.063 M280.745 110.759 C 280.745 138.352,280.772 149.640,280.804 135.844 C 280.836 122.047,280.836 99.471,280.804 85.674 C 280.772 71.877,280.745 83.165,280.745 110.759 M212.789 76.161 C 212.729 76.317,212.707 95.351,212.739 118.460 L 212.797 160.476 212.911 118.177 C 212.973 94.912,212.995 75.878,212.960 75.878 C 212.925 75.878,212.848 76.005,212.789 76.161 M348.075 84.871 C 348.355 84.925,348.814 84.925,349.094 84.871 C 349.374 84.817,349.145 84.773,348.584 84.773 C 348.024 84.773,347.794 84.817,348.075 84.871 M353.287 84.871 C 353.569 84.926,353.976 84.924,354.193 84.867 C 354.409 84.810,354.179 84.766,353.681 84.768 C 353.182 84.771,353.005 84.817,353.287 84.871 M364.779 89.694 C 365.393 90.317,365.946 90.827,366.008 90.827 C 366.070 90.827,365.619 90.317,365.006 89.694 C 364.392 89.071,363.839 88.562,363.777 88.562 C 363.715 88.562,364.166 89.071,364.779 89.694 M296.263 90.487 C 295.713 91.048,295.313 91.506,295.376 91.506 C 295.438 91.506,295.939 91.048,296.489 90.487 C 297.039 89.926,297.439 89.468,297.376 89.468 C 297.314 89.468,296.813 89.926,296.263 90.487 M349.660 98.692 C 350.065 98.742,350.728 98.742,351.133 98.692 C 351.537 98.641,351.206 98.600,350.396 98.600 C 349.587 98.600,349.255 98.641,349.660 98.692 M294.560 124.349 C 294.560 136.993,294.587 142.166,294.621 135.844 C 294.654 129.522,294.654 119.176,294.621 112.854 C 294.587 106.532,294.560 111.704,294.560 124.349 M319.928 125.481 C 319.928 138.624,319.955 144.001,319.989 137.429 C 320.022 130.858,320.022 120.105,319.989 113.533 C 319.955 106.962,319.928 112.339,319.928 125.481 M330.346 124.236 C 330.346 134.700,330.374 138.948,330.408 133.675 C 330.442 128.402,330.442 119.841,330.408 114.649 C 330.374 109.457,330.346 113.771,330.346 124.236 M344.375 109.400 C 344.375 111.704,344.409 112.647,344.450 111.495 C 344.491 110.343,344.491 108.457,344.450 107.305 C 344.409 106.152,344.375 107.095,344.375 109.400 M344.383 134.655 C 344.383 139.264,344.414 141.117,344.450 138.773 C 344.487 136.429,344.487 132.658,344.450 130.393 C 344.413 128.128,344.383 130.045,344.383 134.655 M252.198 144.111 L 251.302 145.074 252.265 144.178 C 253.160 143.346,253.332 143.148,253.160 143.148 C 253.123 143.148,252.690 143.582,252.198 144.111 M294.548 156.133 C 294.485 156.298,294.463 157.393,294.500 158.567 L 294.568 160.702 294.679 158.267 C 294.789 155.854,294.771 155.551,294.548 156.133 " stroke="none" fill="#f49494" fill-rule="evenodd"></path><path id="path4" d="M228.426 68.007 L 228.426 75.538 220.733 75.598 C 216.502 75.630,212.965 75.732,212.873 75.824 C 212.781 75.916,216.294 75.940,220.679 75.878 L 228.652 75.764 228.712 68.120 C 228.745 63.916,228.694 60.476,228.599 60.476 C 228.504 60.476,228.426 63.865,228.426 68.007 M189.468 75.873 L 197.395 75.991 197.508 118.573 L 197.622 161.155 204.956 161.215 C 212.276 161.275,212.923 161.217,212.904 160.505 C 212.900 160.364,212.793 160.428,212.666 160.646 C 212.454 161.010,211.846 161.042,205.085 161.042 L 197.735 161.042 197.735 118.618 C 197.735 85.924,197.673 76.132,197.463 75.923 C 197.260 75.720,195.210 75.664,189.366 75.703 L 181.540 75.756 189.468 75.873 M350.569 84.645 C 350.851 84.699,351.258 84.697,351.475 84.640 C 351.691 84.584,351.461 84.539,350.963 84.542 C 350.464 84.544,350.287 84.591,350.569 84.645 M346.206 85.164 C 345.629 85.412,346.224 85.412,346.999 85.164 C 347.454 85.018,347.476 84.982,347.112 84.976 C 346.863 84.973,346.455 85.057,346.206 85.164 M354.719 85.021 C 354.771 85.067,355.221 85.166,355.719 85.242 C 356.351 85.338,356.488 85.318,356.172 85.175 C 355.737 84.978,354.524 84.849,354.719 85.021 M306.172 85.781 C 306.577 85.831,307.240 85.831,307.644 85.781 C 308.049 85.731,307.718 85.690,306.908 85.690 C 306.099 85.690,305.767 85.731,306.172 85.781 M242.012 115.742 C 242.012 131.874,242.039 138.474,242.072 130.408 C 242.105 122.341,242.105 109.142,242.072 101.076 C 242.039 93.010,242.012 99.609,242.012 115.742 M253.963 114.365 C 253.911 140.375,253.880 142.353,253.519 142.791 L 253.131 143.262 253.633 142.801 L 254.135 142.341 254.077 114.376 L 254.019 86.410 253.963 114.365 M267.381 123.783 C 267.381 143.964,267.408 152.186,267.441 142.055 C 267.473 131.923,267.473 115.411,267.441 105.362 C 267.408 95.312,267.381 103.601,267.381 123.783 M299.320 88.109 C 298.573 88.606,298.040 89.014,298.135 89.014 C 298.329 89.015,300.793 87.411,300.793 87.284 C 300.793 87.139,300.697 87.192,299.320 88.109 M364.792 89.905 C 365.671 90.848,366.622 92.002,366.906 92.469 C 367.534 93.505,367.797 93.604,367.227 92.590 C 367.002 92.189,366.002 91.035,365.006 90.026 L 363.194 88.190 364.792 89.905 M336.863 90.091 C 335.419 91.496,335.404 91.520,336.672 90.391 C 338.732 88.556,338.726 88.562,338.575 88.562 C 338.498 88.562,337.727 89.250,336.863 90.091 M296.036 90.940 C 295.486 91.501,295.087 91.959,295.149 91.959 C 295.211 91.959,295.713 91.501,296.263 90.940 C 296.813 90.379,297.212 89.921,297.150 89.921 C 297.088 89.921,296.586 90.379,296.036 90.940 M317.580 92.072 C 317.584 92.197,317.783 92.707,318.023 93.205 C 318.263 93.703,318.395 93.856,318.318 93.545 C 318.158 92.903,317.568 91.726,317.580 92.072 M319.162 97.754 C 319.174 98.366,319.265 99.122,319.364 99.434 C 319.468 99.763,319.493 99.336,319.423 98.414 C 319.281 96.548,319.130 96.165,319.162 97.754 M369.228 97.622 C 369.228 97.809,369.315 98.165,369.422 98.414 C 369.545 98.700,369.617 98.742,369.617 98.528 C 369.617 98.341,369.529 97.984,369.422 97.735 C 369.300 97.449,369.228 97.408,369.228 97.622 M299.377 98.467 C 299.907 98.515,300.773 98.515,301.302 98.467 C 301.832 98.419,301.399 98.380,300.340 98.380 C 299.281 98.380,298.848 98.419,299.377 98.467 M331.144 99.660 C 331.003 100.184,330.932 100.656,330.986 100.710 C 331.040 100.765,331.195 100.375,331.329 99.846 C 331.464 99.316,331.535 98.843,331.487 98.795 C 331.439 98.748,331.285 99.137,331.144 99.660 M347.102 99.176 C 346.313 99.658,345.184 100.926,345.194 101.320 C 345.198 101.466,345.313 101.382,345.451 101.133 C 345.923 100.280,346.659 99.600,347.565 99.182 C 348.063 98.952,348.318 98.762,348.131 98.760 C 347.945 98.758,347.481 98.945,347.102 99.176 M295.510 100.375 L 294.337 101.543 295.583 100.447 C 296.268 99.845,296.871 99.319,296.923 99.279 C 296.975 99.240,296.942 99.207,296.850 99.207 C 296.758 99.207,296.155 99.733,295.510 100.375 M353.794 99.278 C 353.794 99.317,354.125 99.648,354.530 100.014 L 355.266 100.680 354.601 99.943 C 353.981 99.257,353.794 99.103,353.794 99.278 M330.761 102.265 C 330.762 103.012,330.805 103.291,330.855 102.884 C 330.905 102.477,330.904 101.865,330.853 101.525 C 330.801 101.184,330.760 101.518,330.761 102.265 M370.031 103.171 C 370.101 104.043,370.196 104.799,370.243 104.851 C 370.401 105.025,370.304 103.407,370.103 102.492 C 369.950 101.795,369.933 101.953,370.031 103.171 M356.213 103.851 C 356.285 104.473,356.381 105.025,356.428 105.077 C 356.587 105.256,356.467 103.850,356.274 103.284 C 356.144 102.902,356.124 103.087,356.213 103.851 M344.422 103.859 C 344.344 104.062,344.293 104.499,344.307 104.832 C 344.326 105.284,344.377 105.209,344.510 104.530 C 344.697 103.567,344.656 103.250,344.422 103.859 M330.521 104.530 C 330.524 105.028,330.570 105.205,330.625 104.924 C 330.679 104.642,330.677 104.234,330.620 104.018 C 330.563 103.801,330.519 104.032,330.521 104.530 M306.111 125.142 C 306.111 136.727,306.138 141.433,306.172 135.600 C 306.206 129.767,306.206 120.288,306.172 114.536 C 306.138 108.783,306.111 113.556,306.111 125.142 M370.383 115.572 L 370.328 125.934 357.431 125.934 C 350.338 125.934,344.487 126.011,344.429 126.104 C 344.371 126.198,350.179 126.247,357.335 126.214 C 367.398 126.167,370.370 126.090,370.453 125.874 C 370.512 125.720,370.532 121.008,370.498 115.402 L 370.437 105.210 370.383 115.572 M360.320 133.805 C 362.227 133.843,365.285 133.843,367.115 133.805 C 368.945 133.767,367.384 133.736,363.647 133.736 C 359.909 133.736,358.412 133.767,360.320 133.805 M370.423 138.392 C 370.423 140.821,370.457 141.815,370.497 140.600 C 370.538 139.386,370.538 137.398,370.497 136.183 C 370.457 134.969,370.423 135.963,370.423 138.392 M344.338 143.715 C 344.340 144.213,344.387 144.390,344.441 144.108 C 344.495 143.827,344.493 143.419,344.436 143.202 C 344.380 142.986,344.335 143.216,344.338 143.715 M330.521 143.941 C 330.524 144.439,330.570 144.617,330.625 144.335 C 330.679 144.053,330.677 143.645,330.620 143.429 C 330.563 143.212,330.519 143.443,330.521 143.941 M370.009 144.867 C 369.922 145.819,369.899 146.645,369.956 146.702 C 370.013 146.759,370.133 146.029,370.222 145.080 C 370.311 144.131,370.334 143.305,370.275 143.245 C 370.215 143.185,370.095 143.915,370.009 144.867 M252.309 144.224 L 251.529 145.074 252.378 144.293 C 253.169 143.567,253.332 143.375,253.159 143.375 C 253.121 143.375,252.739 143.757,252.309 144.224 M356.320 144.281 C 356.298 144.717,356.227 145.328,356.163 145.640 L 356.046 146.206 356.290 145.648 C 356.424 145.341,356.495 144.729,356.447 144.289 L 356.362 143.488 356.320 144.281 M330.743 145.640 C 330.743 146.076,330.790 146.254,330.847 146.036 C 330.904 145.818,330.904 145.461,330.847 145.243 C 330.790 145.025,330.743 145.204,330.743 145.640 M242.376 145.827 C 242.501 146.187,242.926 146.777,243.319 147.137 L 244.034 147.792 243.308 146.934 C 242.909 146.463,242.582 145.934,242.582 145.759 C 242.582 145.583,242.484 145.380,242.365 145.306 C 242.231 145.223,242.235 145.424,242.376 145.827 M295.066 147.910 C 295.467 148.330,295.834 148.629,295.880 148.573 C 295.927 148.517,295.599 148.173,295.152 147.808 L 294.337 147.145 295.066 147.910 M355.379 147.905 C 355.221 148.287,354.774 148.859,354.386 149.177 C 353.998 149.494,353.886 149.653,354.136 149.530 C 354.874 149.167,356.039 147.583,355.768 147.312 C 355.712 147.256,355.537 147.523,355.379 147.905 M245.033 147.990 C 245.467 148.115,246.040 148.115,246.473 147.990 C 247.094 147.812,246.995 147.784,245.753 147.784 C 244.511 147.784,244.412 147.812,245.033 147.990 M304.405 149.434 L 303.624 150.283 304.473 149.503 C 305.264 148.776,305.427 148.584,305.254 148.584 C 305.216 148.584,304.834 148.967,304.405 149.434 M298.877 150.382 C 299.007 150.513,299.772 150.668,300.576 150.726 L 302.039 150.832 300.680 150.616 C 299.932 150.497,299.168 150.342,298.981 150.271 C 298.744 150.182,298.713 150.215,298.877 150.382 M349.547 150.335 C 350.014 150.384,350.779 150.384,351.246 150.335 C 351.713 150.286,351.331 150.246,350.396 150.246 C 349.462 150.246,349.080 150.286,349.547 150.335 M228.727 152.375 C 228.780 153.218,228.900 154.111,228.993 154.360 C 229.086 154.609,229.111 154.049,229.049 153.114 C 228.986 152.180,228.867 151.287,228.783 151.129 C 228.699 150.971,228.674 151.532,228.727 152.375 M319.281 151.557 C 319.092 152.501,319.275 152.684,319.479 151.755 C 319.565 151.364,319.588 150.996,319.530 150.939 C 319.473 150.881,319.360 151.159,319.281 151.557 M253.216 153.503 C 252.955 153.848,252.956 153.866,253.227 153.624 C 253.838 153.079,253.897 153.370,253.958 157.248 L 254.020 161.155 260.574 161.215 C 264.179 161.248,267.206 161.197,267.301 161.102 C 267.397 161.007,264.476 160.958,260.810 160.995 L 254.144 161.061 254.082 157.163 C 254.020 153.220,253.880 152.628,253.216 153.503 M229.250 155.153 C 229.250 155.340,229.338 155.696,229.445 155.946 C 229.568 156.231,229.640 156.273,229.640 156.059 C 229.640 155.872,229.552 155.515,229.445 155.266 C 229.322 154.981,229.250 154.939,229.250 155.153 M294.451 155.870 C 294.451 156.015,294.522 156.063,294.608 155.977 C 294.695 155.890,295.485 156.510,296.364 157.355 L 297.961 158.890 296.382 157.248 C 294.817 155.621,294.451 155.359,294.451 155.870 M366.025 156.285 C 365.759 156.659,365.592 156.965,365.654 156.965 C 365.717 156.965,365.985 156.659,366.251 156.285 C 366.518 155.912,366.684 155.606,366.622 155.606 C 366.560 155.606,366.291 155.912,366.025 156.285 M248.581 157.835 C 247.832 158.415,246.966 159.073,246.656 159.297 C 246.346 159.521,246.246 159.632,246.433 159.545 C 247.020 159.271,249.500 157.475,249.813 157.099 C 250.252 156.570,250.088 156.668,248.581 157.835 M315.730 158.947 L 314.949 159.796 315.798 159.016 C 316.589 158.289,316.752 158.097,316.579 158.097 C 316.541 158.097,316.159 158.480,315.730 158.947 M231.701 159.740 C 232.639 160.740,232.843 160.919,232.843 160.749 C 232.843 160.713,232.358 160.229,231.767 159.673 L 230.691 158.664 231.701 159.740 M362.288 159.803 C 361.402 160.529,361.640 160.525,362.627 159.796 C 363.050 159.485,363.299 159.234,363.181 159.238 C 363.063 159.243,362.661 159.497,362.288 159.803 M294.308 160.822 C 294.156 160.975,291.783 161.034,287.468 160.992 C 283.834 160.957,280.860 161.005,280.861 161.099 C 280.861 161.462,294.146 161.296,294.451 160.929 C 294.770 160.544,294.664 160.466,294.308 160.822 M340.883 161.155 C 341.195 161.333,341.552 161.479,341.676 161.479 C 341.801 161.479,341.648 161.333,341.336 161.155 C 341.025 160.977,340.668 160.831,340.544 160.831 C 340.419 160.831,340.572 160.977,340.883 161.155 M303.171 161.495 C 303.420 161.602,303.777 161.690,303.964 161.690 C 304.178 161.690,304.136 161.618,303.851 161.495 C 303.601 161.388,303.245 161.300,303.058 161.300 C 302.844 161.300,302.885 161.372,303.171 161.495 M304.889 161.804 C 304.941 161.849,305.646 161.940,306.455 162.006 C 307.320 162.076,307.741 162.048,307.475 161.939 C 307.036 161.759,304.698 161.637,304.889 161.804 M308.554 161.884 C 308.898 161.936,309.407 161.935,309.686 161.881 C 309.965 161.827,309.683 161.784,309.060 161.786 C 308.437 161.788,308.209 161.832,308.554 161.884 M357.191 162.061 C 356.755 162.229,356.552 162.370,356.738 162.373 C 356.925 162.377,357.384 162.240,357.758 162.069 C 358.632 161.669,358.226 161.663,357.191 162.061 M237.210 162.115 C 237.805 162.161,238.722 162.161,239.248 162.113 C 239.774 162.066,239.287 162.028,238.165 162.028 C 237.044 162.029,236.614 162.068,237.210 162.115 M355.210 162.557 C 355.428 162.614,355.784 162.614,356.002 162.557 C 356.220 162.500,356.042 162.453,355.606 162.453 C 355.170 162.453,354.992 162.500,355.210 162.557 M348.754 163.022 C 349.533 163.066,350.807 163.066,351.586 163.022 C 352.364 162.977,351.727 162.941,350.170 162.941 C 348.613 162.941,347.976 162.977,348.754 163.022 " stroke="none" fill="#f49c9c" fill-rule="evenodd"></path></g></svg>